<svg width="1910" height="1236" viewBox="0 0 1910 1236" fill="none" xmlns="http://www.w3.org/2000/svg">
<g clip-path="url(#clip0_27_193)">
<path d="M707.527 457.853C749.279 457.853 783.126 424.014 783.126 382.271C783.126 340.529 749.279 306.69 707.527 306.69C665.775 306.69 631.928 340.529 631.928 382.271C631.928 424.014 665.775 457.853 707.527 457.853Z" fill="url(#paint0_linear_27_193)"/>
<path d="M753.08 223.034C791.799 223.034 823.187 191.653 823.187 152.943C823.187 114.233 791.799 82.8528 753.08 82.8528C714.361 82.8528 682.974 114.233 682.974 152.943C682.974 191.653 714.361 223.034 753.08 223.034Z" fill="url(#paint1_linear_27_193)"/>
<path d="M864.54 62.5039C900.047 62.5039 928.831 33.7264 928.831 -1.77256C928.831 -37.2715 900.047 -66.0491 864.54 -66.0491C829.033 -66.0491 800.249 -37.2715 800.249 -1.77256C800.249 33.7264 829.033 62.5039 864.54 62.5039Z" fill="url(#paint2_linear_27_193)"/>
<path d="M1657.14 12.9621C1666.56 6.82481 1669.21 -5.78249 1663.07 -15.1971C1656.94 -24.6116 1644.33 -27.2684 1634.91 -21.1311C1625.49 -14.9938 1622.83 -2.38653 1628.97 7.02805C1635.11 16.4426 1647.72 19.0994 1657.14 12.9621Z" fill="url(#paint3_linear_27_193)"/>
<path d="M1202.47 946.871C1244.22 946.871 1278.07 913.032 1278.07 871.289C1278.07 829.547 1244.22 795.708 1202.47 795.708C1160.72 795.708 1126.87 829.547 1126.87 871.289C1126.87 913.032 1160.72 946.871 1202.47 946.871Z" fill="url(#paint4_linear_27_193)"/>
<path d="M1156.92 1170.71C1195.64 1170.71 1227.03 1139.33 1227.03 1100.62C1227.03 1061.91 1195.64 1030.53 1156.92 1030.53C1118.2 1030.53 1086.81 1061.91 1086.81 1100.62C1086.81 1139.33 1118.2 1170.71 1156.92 1170.71Z" fill="url(#paint5_linear_27_193)"/>
<path d="M1045.46 1319.29C1080.97 1319.29 1109.75 1290.51 1109.75 1255.01C1109.75 1219.51 1080.97 1190.73 1045.46 1190.73C1009.95 1190.73 981.169 1219.51 981.169 1255.01C981.169 1290.51 1009.95 1319.29 1045.46 1319.29Z" fill="url(#paint6_linear_27_193)"/>
<path d="M274.788 1274.66C284.244 1268.59 286.983 1256 280.905 1246.54C274.827 1237.09 262.234 1234.35 252.778 1240.43C243.322 1246.5 240.583 1259.09 246.661 1268.55C252.739 1278 265.332 1280.74 274.788 1274.66Z" fill="url(#paint7_linear_27_193)"/>
<path d="M953.062 354.494C994.814 354.494 1028.66 320.655 1028.66 278.912C1028.66 237.17 994.814 203.331 953.062 203.331C911.31 203.331 877.463 237.17 877.463 278.912C877.463 320.655 911.31 354.494 953.062 354.494Z" fill="url(#paint8_linear_27_193)"/>
<path d="M1147.55 219.158C1186.27 219.158 1217.66 187.777 1217.66 149.067C1217.66 110.357 1186.27 78.9768 1147.55 78.9768C1108.83 78.9768 1077.44 110.357 1077.44 149.067C1077.44 187.777 1108.83 219.158 1147.55 219.158Z" fill="url(#paint9_linear_27_193)"/>
<path d="M1335.26 182.659C1370.76 182.659 1399.55 153.881 1399.55 118.382C1399.55 82.8835 1370.76 54.106 1335.26 54.106C1299.75 54.106 1270.96 82.8835 1270.96 118.382C1270.96 153.881 1299.75 182.659 1335.26 182.659Z" fill="url(#paint10_linear_27_193)"/>
<path d="M1492.59 207.207C1520.96 207.207 1543.96 184.214 1543.96 155.85C1543.96 127.487 1520.96 104.494 1492.59 104.494C1464.22 104.494 1441.22 127.487 1441.22 155.85C1441.22 184.214 1464.22 207.207 1492.59 207.207Z" fill="url(#paint11_linear_27_193)"/>
<path d="M1675.86 238.506C1683.23 215.579 1670.62 191.019 1647.69 183.649C1624.75 176.279 1600.19 188.891 1592.82 211.817C1585.45 234.744 1598.06 259.304 1620.99 266.674C1643.92 274.044 1668.49 261.433 1675.86 238.506Z" fill="url(#paint12_linear_27_193)"/>
<path d="M1789.73 352.485C1797.42 335.017 1789.5 314.619 1772.03 306.926C1754.55 299.232 1734.15 307.156 1726.46 324.624C1718.76 342.093 1726.69 362.49 1744.16 370.184C1761.63 377.877 1782.03 369.953 1789.73 352.485Z" fill="url(#paint13_linear_27_193)"/>
<path d="M1849.01 524.379C1864.17 523.89 1876.06 511.207 1875.57 496.052C1875.08 480.897 1862.39 469.009 1847.24 469.498C1832.08 469.988 1820.19 482.67 1820.68 497.825C1821.16 512.98 1833.85 524.869 1849.01 524.379Z" fill="url(#paint14_linear_27_193)"/>
<path d="M1909.64 673.288C1911.99 662.296 1904.97 651.487 1893.98 649.145C1882.98 646.803 1872.17 653.814 1869.83 664.806C1867.49 675.797 1874.5 686.606 1885.49 688.949C1896.49 691.291 1907.3 684.279 1909.64 673.288Z" fill="url(#paint15_linear_27_193)"/>
<path d="M956.939 1050.23C998.691 1050.23 1032.54 1016.39 1032.54 974.649C1032.54 932.906 998.691 899.067 956.939 899.067C915.187 899.067 881.34 932.906 881.34 974.649C881.34 1016.39 915.187 1050.23 956.939 1050.23Z" fill="url(#paint16_linear_27_193)"/>
<path d="M762.449 1174.58C801.168 1174.58 832.556 1143.2 832.556 1104.49C832.556 1065.78 801.168 1034.4 762.449 1034.4C723.731 1034.4 692.343 1065.78 692.343 1104.49C692.343 1143.2 723.731 1174.58 762.449 1174.58Z" fill="url(#paint17_linear_27_193)"/>
<path d="M574.422 1199.45C609.929 1199.45 638.713 1170.68 638.713 1135.18C638.713 1099.68 609.929 1070.9 574.422 1070.9C538.915 1070.9 510.13 1099.68 510.13 1135.18C510.13 1170.68 538.915 1199.45 574.422 1199.45Z" fill="url(#paint18_linear_27_193)"/>
<path d="M417.408 1149.07C445.778 1149.07 468.777 1126.07 468.777 1097.71C468.777 1069.35 445.778 1046.35 417.408 1046.35C389.038 1046.35 366.04 1069.35 366.04 1097.71C366.04 1126.07 389.038 1149.07 417.408 1149.07Z" fill="url(#paint19_linear_27_193)"/>
<path d="M317.211 1042.71C324.938 1019.9 312.706 995.143 289.892 987.418C267.077 979.693 242.318 991.921 234.591 1014.73C226.864 1037.54 239.096 1062.29 261.91 1070.02C284.725 1077.74 309.484 1065.52 317.211 1042.71Z" fill="url(#paint20_linear_27_193)"/>
<path d="M183.546 927.613C190.725 909.927 182.205 889.771 164.514 882.593C146.824 875.414 126.663 883.933 119.483 901.619C112.304 919.306 120.824 939.462 138.515 946.64C156.205 953.818 176.366 945.3 183.546 927.613Z" fill="url(#paint21_linear_27_193)"/>
<path d="M62.567 783.987C77.7293 783.64 89.7398 771.07 89.3931 755.912C89.0463 740.753 76.4737 728.745 61.3113 729.092C46.149 729.438 34.1385 742.008 34.4852 757.167C34.832 772.326 47.4046 784.333 62.567 783.987Z" fill="url(#paint22_linear_27_193)"/>
<path d="M40.1114 588.546C42.5252 577.57 35.582 566.715 24.6033 564.302C13.6246 561.889 2.76784 568.83 0.354018 579.807C-2.05981 590.783 4.88338 601.637 15.8621 604.05C26.8408 606.464 37.6976 599.522 40.1114 588.546Z" fill="url(#paint23_linear_27_193)"/>
<path d="M1199.57 454.946C1241.32 454.946 1275.16 421.107 1275.16 379.364C1275.16 337.622 1241.32 303.783 1199.57 303.783C1157.81 303.783 1123.97 337.622 1123.97 379.364C1123.97 421.107 1157.81 454.946 1199.57 454.946Z" fill="url(#paint24_linear_27_193)"/>
<path d="M1428.95 494.997C1467.67 494.997 1499.05 463.617 1499.05 424.907C1499.05 386.197 1467.67 354.816 1428.95 354.816C1390.23 354.816 1358.84 386.197 1358.84 424.907C1358.84 463.617 1390.23 494.997 1428.95 494.997Z" fill="url(#paint25_linear_27_193)"/>
<path d="M1583.37 600.618C1618.88 600.618 1647.67 571.84 1647.67 536.341C1647.67 500.842 1618.88 472.065 1583.37 472.065C1547.87 472.065 1519.08 500.842 1519.08 536.341C1519.08 571.84 1547.87 600.618 1583.37 600.618Z" fill="url(#paint26_linear_27_193)"/>
<path d="M1668.02 725.295C1696.39 725.295 1719.39 702.302 1719.39 673.938C1719.39 645.575 1696.39 622.582 1668.02 622.582C1639.65 622.582 1616.65 645.575 1616.65 673.938C1616.65 702.302 1639.65 725.295 1668.02 725.295Z" fill="url(#paint27_linear_27_193)"/>
<path d="M1739.63 861.444C1760.97 850.287 1769.23 823.941 1758.07 802.6C1746.91 781.258 1720.56 773.002 1699.21 784.159C1677.87 795.316 1669.61 821.662 1680.77 843.004C1691.93 864.345 1718.28 872.601 1739.63 861.444Z" fill="url(#paint28_linear_27_193)"/>
<path d="M1738.94 1023.42C1756.82 1016.74 1765.91 996.832 1759.23 978.951C1752.55 961.07 1732.63 951.988 1714.75 958.667C1696.86 965.345 1687.78 985.254 1694.46 1003.14C1701.14 1021.02 1721.05 1030.1 1738.94 1023.42Z" fill="url(#paint29_linear_27_193)"/>
<path d="M1698.33 1185.01C1708.64 1173.89 1707.98 1156.52 1696.86 1146.22C1685.73 1135.91 1668.36 1136.57 1658.05 1147.69C1647.74 1158.81 1648.4 1176.19 1659.53 1186.49C1670.65 1196.8 1688.03 1196.14 1698.33 1185.01Z" fill="url(#paint30_linear_27_193)"/>
<path d="M710.435 949.778C752.187 949.778 786.034 915.939 786.034 874.197C786.034 832.454 752.187 798.615 710.435 798.615C668.683 798.615 634.836 832.454 634.836 874.197C634.836 915.939 668.683 949.778 710.435 949.778Z" fill="url(#paint31_linear_27_193)"/>
<path d="M481.054 898.744C519.773 898.744 551.16 867.364 551.16 828.654C551.16 789.944 519.773 758.563 481.054 758.563C442.335 758.563 410.947 789.944 410.947 828.654C410.947 867.364 442.335 898.744 481.054 898.744Z" fill="url(#paint32_linear_27_193)"/>
<path d="M326.302 781.496C361.809 781.496 390.593 752.719 390.593 717.22C390.593 681.721 361.809 652.943 326.302 652.943C290.795 652.943 262.011 681.721 262.011 717.22C262.011 752.719 290.795 781.496 326.302 781.496Z" fill="url(#paint33_linear_27_193)"/>
<path d="M241.981 630.979C270.351 630.979 293.349 607.986 293.349 579.623C293.349 551.259 270.351 528.266 241.981 528.266C213.611 528.266 190.612 551.259 190.612 579.623C190.612 607.986 213.611 630.979 241.981 630.979Z" fill="url(#paint34_linear_27_193)"/>
<path d="M210.171 469.723C231.688 458.898 240.355 432.684 229.528 411.172C218.701 389.659 192.481 380.995 170.964 391.819C149.446 402.644 140.78 428.858 151.607 450.37C162.433 471.883 188.654 480.547 210.171 469.723Z" fill="url(#paint35_linear_27_193)"/>
<path d="M196.425 294.481C214.106 287.281 222.602 267.114 215.401 249.437C208.199 231.759 188.028 223.265 170.346 230.465C152.665 237.665 144.169 257.831 151.37 275.509C158.571 293.186 178.743 301.68 196.425 294.481Z" fill="url(#paint36_linear_27_193)"/>
<path d="M251.965 106.03C262.374 95.0021 261.87 77.626 250.84 67.2193C239.809 56.8126 222.429 57.3162 212.02 68.3441C201.611 79.3719 202.115 96.748 213.145 107.155C224.176 117.561 241.556 117.058 251.965 106.03Z" fill="url(#paint37_linear_27_193)"/>
<path d="M1302.95 700.424C1344.7 700.424 1378.55 666.585 1378.55 624.842C1378.55 583.1 1344.7 549.261 1302.95 549.261C1261.2 549.261 1227.35 583.1 1227.35 624.842C1227.35 666.585 1261.2 700.424 1302.95 700.424Z" fill="url(#paint38_linear_27_193)"/>
<path d="M1432.82 889.377C1471.54 889.377 1502.93 857.997 1502.93 819.287C1502.93 780.577 1471.54 749.196 1432.82 749.196C1394.1 749.196 1362.72 780.577 1362.72 819.287C1362.72 857.997 1394.1 889.377 1432.82 889.377Z" fill="url(#paint39_linear_27_193)"/>
<path d="M1463.51 1071.22C1499.02 1071.22 1527.81 1042.45 1527.81 1006.95C1527.81 971.449 1499.02 942.672 1463.51 942.672C1428.01 942.672 1399.22 971.449 1399.22 1006.95C1399.22 1042.45 1428.01 1071.22 1463.51 1071.22Z" fill="url(#paint40_linear_27_193)"/>
<path d="M1426.04 1215.6C1454.41 1215.6 1477.41 1192.61 1477.41 1164.25C1477.41 1135.88 1454.41 1112.89 1426.04 1112.89C1397.67 1112.89 1374.67 1135.88 1374.67 1164.25C1374.67 1192.61 1397.67 1215.6 1426.04 1215.6Z" fill="url(#paint41_linear_27_193)"/>
<path d="M607.052 704.3C648.804 704.3 682.651 670.461 682.651 628.718C682.651 586.976 648.804 553.137 607.052 553.137C565.3 553.137 531.453 586.976 531.453 628.718C531.453 670.461 565.3 704.3 607.052 704.3Z" fill="url(#paint42_linear_27_193)"/>
<path d="M477.177 504.364C515.896 504.364 547.283 472.984 547.283 434.274C547.283 395.564 515.896 364.184 477.177 364.184C438.458 364.184 407.07 395.564 407.07 434.274C407.07 472.984 438.458 504.364 477.177 504.364Z" fill="url(#paint43_linear_27_193)"/>
<path d="M446.485 310.566C481.992 310.566 510.776 281.788 510.776 246.289C510.776 210.791 481.992 182.013 446.485 182.013C410.978 182.013 382.194 210.791 382.194 246.289C382.194 281.788 410.978 310.566 446.485 310.566Z" fill="url(#paint44_linear_27_193)"/>
<path d="M483.962 140.669C512.332 140.669 535.33 117.676 535.33 89.3126C535.33 60.9492 512.332 37.9561 483.962 37.9561C455.592 37.9561 432.593 60.9492 432.593 89.3126C432.593 117.676 455.592 140.669 483.962 140.669Z" fill="url(#paint45_linear_27_193)"/>
<path d="M594.45 -38.3884C602.022 -61.25 589.622 -85.9193 566.755 -93.4889C543.889 -101.059 519.214 -88.662 511.642 -65.8004C504.071 -42.9388 516.47 -18.2694 539.337 -10.6998C562.204 -3.13018 586.879 -15.5268 594.45 -38.3884Z" fill="url(#paint46_linear_27_193)"/>
</g>
<defs>
<linearGradient id="paint0_linear_27_193" x1="324.364" y1="1092.22" x2="931.199" y2="-32.5741" gradientUnits="userSpaceOnUse">
<stop stop-color="#7C4A9D"/>
<stop offset="0.99" stop-color="#C83493"/>
</linearGradient>
<linearGradient id="paint1_linear_27_193" x1="263.95" y1="1059.6" x2="870.462" y2="-65.1967" gradientUnits="userSpaceOnUse">
<stop stop-color="#7C4A9D"/>
<stop offset="0.99" stop-color="#C83493"/>
</linearGradient>
<linearGradient id="paint2_linear_27_193" x1="285.595" y1="1071.22" x2="892.108" y2="-53.5687" gradientUnits="userSpaceOnUse">
<stop stop-color="#7C4A9D"/>
<stop offset="0.99" stop-color="#C83493"/>
</linearGradient>
<linearGradient id="paint3_linear_27_193" x1="889.762" y1="1396.9" x2="1496.6" y2="272.105" gradientUnits="userSpaceOnUse">
<stop stop-color="#7C4A9D"/>
<stop offset="0.99" stop-color="#C83493"/>
</linearGradient>
<linearGradient id="paint4_linear_27_193" x1="912.031" y1="1409.4" x2="1518.87" y2="284.286" gradientUnits="userSpaceOnUse">
<stop stop-color="#7C4A9D"/>
<stop offset="0.99" stop-color="#C83493"/>
</linearGradient>
<linearGradient id="paint5_linear_27_193" x1="972.769" y1="1442.03" x2="1579.28" y2="316.909" gradientUnits="userSpaceOnUse">
<stop stop-color="#7C4A9D"/>
<stop offset="0.99" stop-color="#C83493"/>
</linearGradient>
<linearGradient id="paint6_linear_27_193" x1="951.123" y1="1430.4" x2="1557.64" y2="305.282" gradientUnits="userSpaceOnUse">
<stop stop-color="#7C4A9D"/>
<stop offset="0.99" stop-color="#C83493"/>
</linearGradient>
<linearGradient id="paint7_linear_27_193" x1="346.568" y1="1104.52" x2="953.404" y2="-20.5975" gradientUnits="userSpaceOnUse">
<stop stop-color="#7C4A9D"/>
<stop offset="0.99" stop-color="#C83493"/>
</linearGradient>
<linearGradient id="paint8_linear_27_193" x1="471.362" y1="1171.68" x2="1077.87" y2="46.5603" gradientUnits="userSpaceOnUse">
<stop stop-color="#7C4A9D"/>
<stop offset="0.99" stop-color="#C83493"/>
</linearGradient>
<linearGradient id="paint9_linear_27_193" x1="567.637" y1="1223.36" x2="1174.47" y2="98.563" gradientUnits="userSpaceOnUse">
<stop stop-color="#7C4A9D"/>
<stop offset="0.99" stop-color="#C83493"/>
</linearGradient>
<linearGradient id="paint10_linear_27_193" x1="700.419" y1="1295.06" x2="1307.25" y2="170.268" gradientUnits="userSpaceOnUse">
<stop stop-color="#7C4A9D"/>
<stop offset="0.99" stop-color="#C83493"/>
</linearGradient>
<linearGradient id="paint11_linear_27_193" x1="837.725" y1="1369.35" x2="1444.56" y2="244.235" gradientUnits="userSpaceOnUse">
<stop stop-color="#7C4A9D"/>
<stop offset="0.99" stop-color="#C83493"/>
</linearGradient>
<linearGradient id="paint12_linear_27_193" x1="976.644" y1="1444.17" x2="1583.48" y2="319.054" gradientUnits="userSpaceOnUse">
<stop stop-color="#7C4A9D"/>
<stop offset="0.99" stop-color="#C83493"/>
</linearGradient>
<linearGradient id="paint13_linear_27_193" x1="1119.76" y1="1521.4" x2="1726.6" y2="396.611" gradientUnits="userSpaceOnUse">
<stop stop-color="#7C4A9D"/>
<stop offset="0.99" stop-color="#C83493"/>
</linearGradient>
<linearGradient id="paint14_linear_27_193" x1="1255.8" y1="1594.59" x2="1862.31" y2="469.8" gradientUnits="userSpaceOnUse">
<stop stop-color="#7C4A9D"/>
<stop offset="0.99" stop-color="#C83493"/>
</linearGradient>
<linearGradient id="paint15_linear_27_193" x1="1360.2" y1="1651" x2="1966.71" y2="525.881" gradientUnits="userSpaceOnUse">
<stop stop-color="#7C4A9D"/>
<stop offset="0.99" stop-color="#C83493"/>
</linearGradient>
<linearGradient id="paint16_linear_27_193" x1="765.034" y1="1329.95" x2="1371.87" y2="205.153" gradientUnits="userSpaceOnUse">
<stop stop-color="#7C4A9D"/>
<stop offset="0.99" stop-color="#C83493"/>
</linearGradient>
<linearGradient id="paint17_linear_27_193" x1="668.759" y1="1277.94" x2="1275.59" y2="153.15" gradientUnits="userSpaceOnUse">
<stop stop-color="#7C4A9D"/>
<stop offset="0.99" stop-color="#C83493"/>
</linearGradient>
<linearGradient id="paint18_linear_27_193" x1="535.976" y1="1206.56" x2="1142.81" y2="81.4442" gradientUnits="userSpaceOnUse">
<stop stop-color="#7C4A9D"/>
<stop offset="0.99" stop-color="#C83493"/>
</linearGradient>
<linearGradient id="paint19_linear_27_193" x1="398.67" y1="1132.27" x2="1005.51" y2="7.47757" gradientUnits="userSpaceOnUse">
<stop stop-color="#7C4A9D"/>
<stop offset="0.99" stop-color="#C83493"/>
</linearGradient>
<linearGradient id="paint20_linear_27_193" x1="260.102" y1="1057.83" x2="866.938" y2="-66.9595" gradientUnits="userSpaceOnUse">
<stop stop-color="#7C4A9D"/>
<stop offset="0.99" stop-color="#C83493"/>
</linearGradient>
<linearGradient id="paint21_linear_27_193" x1="116.478" y1="979.99" x2="723.314" y2="-145.126" gradientUnits="userSpaceOnUse">
<stop stop-color="#7C4A9D"/>
<stop offset="0.99" stop-color="#C83493"/>
</linearGradient>
<linearGradient id="paint22_linear_27_193" x1="-19.0974" y1="906.897" x2="587.416" y2="-218.22" gradientUnits="userSpaceOnUse">
<stop stop-color="#7C4A9D"/>
<stop offset="0.99" stop-color="#C83493"/>
</linearGradient>
<linearGradient id="paint23_linear_27_193" x1="-123.524" y1="850.517" x2="482.989" y2="-274.276" gradientUnits="userSpaceOnUse">
<stop stop-color="#7C4A9D"/>
<stop offset="0.99" stop-color="#C83493"/>
</linearGradient>
<linearGradient id="paint24_linear_27_193" x1="704.297" y1="1297.32" x2="1311.13" y2="172.206" gradientUnits="userSpaceOnUse">
<stop stop-color="#7C4A9D"/>
<stop offset="0.99" stop-color="#C83493"/>
</linearGradient>
<linearGradient id="paint25_linear_27_193" x1="901.047" y1="1403.27" x2="1507.88" y2="278.472" gradientUnits="userSpaceOnUse">
<stop stop-color="#7C4A9D"/>
<stop offset="0.99" stop-color="#C83493"/>
</linearGradient>
<linearGradient id="paint26_linear_27_193" x1="1067.11" y1="1493.06" x2="1673.94" y2="367.943" gradientUnits="userSpaceOnUse">
<stop stop-color="#7C4A9D"/>
<stop offset="0.99" stop-color="#C83493"/>
</linearGradient>
<linearGradient id="paint27_linear_27_193" x1="1190.2" y1="1559.27" x2="1797.03" y2="434.48" gradientUnits="userSpaceOnUse">
<stop stop-color="#7C4A9D"/>
<stop offset="0.99" stop-color="#C83493"/>
</linearGradient>
<linearGradient id="paint28_linear_27_193" x1="1292.54" y1="1614.11" x2="1899.05" y2="489.313" gradientUnits="userSpaceOnUse">
<stop stop-color="#7C4A9D"/>
<stop offset="0.99" stop-color="#C83493"/>
</linearGradient>
<linearGradient id="paint29_linear_27_193" x1="1368.01" y1="1655.2" x2="1974.84" y2="530.41" gradientUnits="userSpaceOnUse">
<stop stop-color="#7C4A9D"/>
<stop offset="0.99" stop-color="#C83493"/>
</linearGradient>
<linearGradient id="paint30_linear_27_193" x1="1404.18" y1="1674.47" x2="2011.01" y2="549.357" gradientUnits="userSpaceOnUse">
<stop stop-color="#7C4A9D"/>
<stop offset="0.99" stop-color="#C83493"/>
</linearGradient>
<linearGradient id="paint31_linear_27_193" x1="532.099" y1="1204.3" x2="1138.93" y2="79.5062" gradientUnits="userSpaceOnUse">
<stop stop-color="#7C4A9D"/>
<stop offset="0.99" stop-color="#C83493"/>
</linearGradient>
<linearGradient id="paint32_linear_27_193" x1="335.348" y1="1098.36" x2="942.184" y2="-26.7599" gradientUnits="userSpaceOnUse">
<stop stop-color="#7C4A9D"/>
<stop offset="0.99" stop-color="#C83493"/>
</linearGradient>
<linearGradient id="paint33_linear_27_193" x1="169.289" y1="1008.56" x2="775.801" y2="-116.23" gradientUnits="userSpaceOnUse">
<stop stop-color="#7C4A9D"/>
<stop offset="0.99" stop-color="#C83493"/>
</linearGradient>
<linearGradient id="paint34_linear_27_193" x1="46.1993" y1="942.349" x2="653.035" y2="-182.768" gradientUnits="userSpaceOnUse">
<stop stop-color="#7C4A9D"/>
<stop offset="0.99" stop-color="#C83493"/>
</linearGradient>
<linearGradient id="paint35_linear_27_193" x1="-55.7933" y1="887.611" x2="551.042" y2="-237.506" gradientUnits="userSpaceOnUse">
<stop stop-color="#7C4A9D"/>
<stop offset="0.99" stop-color="#C83493"/>
</linearGradient>
<linearGradient id="paint36_linear_27_193" x1="-131.746" y1="846.13" x2="475.09" y2="-278.664" gradientUnits="userSpaceOnUse">
<stop stop-color="#7C4A9D"/>
<stop offset="0.99" stop-color="#C83493"/>
</linearGradient>
<linearGradient id="paint37_linear_27_193" x1="-167.483" y1="826.931" x2="439.352" y2="-297.862" gradientUnits="userSpaceOnUse">
<stop stop-color="#7C4A9D"/>
<stop offset="0.99" stop-color="#C83493"/>
</linearGradient>
<linearGradient id="paint38_linear_27_193" x1="886.832" y1="1395.84" x2="1493.67" y2="270.721" gradientUnits="userSpaceOnUse">
<stop stop-color="#7C4A9D"/>
<stop offset="0.99" stop-color="#C83493"/>
</linearGradient>
<linearGradient id="paint39_linear_27_193" x1="1068.72" y1="1493.71" x2="1675.56" y2="368.912" gradientUnits="userSpaceOnUse">
<stop stop-color="#7C4A9D"/>
<stop offset="0.99" stop-color="#C83493"/>
</linearGradient>
<linearGradient id="paint40_linear_27_193" x1="1171.14" y1="1548.94" x2="1777.65" y2="424.144" gradientUnits="userSpaceOnUse">
<stop stop-color="#7C4A9D"/>
<stop offset="0.99" stop-color="#C83493"/>
</linearGradient>
<linearGradient id="paint41_linear_27_193" x1="1207.64" y1="1568.64" x2="1814.48" y2="443.847" gradientUnits="userSpaceOnUse">
<stop stop-color="#7C4A9D"/>
<stop offset="0.99" stop-color="#C83493"/>
</linearGradient>
<linearGradient id="paint42_linear_27_193" x1="349.564" y1="1105.79" x2="956.399" y2="-19.0079" gradientUnits="userSpaceOnUse">
<stop stop-color="#7C4A9D"/>
<stop offset="0.99" stop-color="#C83493"/>
</linearGradient>
<linearGradient id="paint43_linear_27_193" x1="167.674" y1="1007.59" x2="774.187" y2="-117.199" gradientUnits="userSpaceOnUse">
<stop stop-color="#7C4A9D"/>
<stop offset="0.99" stop-color="#C83493"/>
</linearGradient>
<linearGradient id="paint44_linear_27_193" x1="65.5835" y1="952.685" x2="672.096" y2="-172.432" gradientUnits="userSpaceOnUse">
<stop stop-color="#7C4A9D"/>
<stop offset="0.99" stop-color="#C83493"/>
</linearGradient>
<linearGradient id="paint45_linear_27_193" x1="28.7537" y1="932.982" x2="635.589" y2="-192.135" gradientUnits="userSpaceOnUse">
<stop stop-color="#7C4A9D"/>
<stop offset="0.99" stop-color="#C83493"/>
</linearGradient>
<linearGradient id="paint46_linear_27_193" x1="23.1463" y1="929.658" x2="629.658" y2="-195.135" gradientUnits="userSpaceOnUse">
<stop stop-color="#7C4A9D"/>
<stop offset="0.99" stop-color="#C83493"/>
</linearGradient>
<clipPath id="clip0_27_193">
<rect width="1910" height="1875" fill="white" transform="translate(0 -328)"/>
</clipPath>
</defs>
</svg>
