<svg width="20" height="20" viewBox="0 0 20 20" fill="none" xmlns="http://www.w3.org/2000/svg">
<path d="M3.33334 16.6666C2.87501 16.6666 2.48251 16.5033 2.15584 16.1766C1.82917 15.8499 1.66612 15.4577 1.66667 14.9999V4.99992C1.66667 4.54159 1.83001 4.14909 2.15667 3.82242C2.48334 3.49575 2.87556 3.3327 3.33334 3.33325H16.6667C17.125 3.33325 17.5175 3.49659 17.8442 3.82325C18.1708 4.14992 18.3339 4.54214 18.3333 4.99992V14.9999C18.3333 15.4583 18.17 15.8508 17.8433 16.1774C17.5167 16.5041 17.1245 16.6671 16.6667 16.6666H3.33334ZM16.6667 6.66659L10.4375 10.5624C10.3681 10.6041 10.295 10.6355 10.2183 10.6566C10.1417 10.6777 10.0689 10.688 10 10.6874C9.93056 10.6874 9.85751 10.6771 9.78084 10.6566C9.70417 10.636 9.6314 10.6046 9.56251 10.5624L3.33334 6.66659V14.9999H16.6667V6.66659ZM10 9.16659L16.6667 4.99992H3.33334L10 9.16659ZM3.33334 6.87492V5.64575V5.66659V5.65659V6.87492Z" fill="#FFFFFF"/>
</svg>
