<svg width="20" height="20" viewBox="0 0 20 20" fill="none" xmlns="http://www.w3.org/2000/svg">
<path d="M10 13.7292C11.375 12.6181 12.4133 11.5487 13.115 10.5209C13.8167 9.49314 14.1672 8.52786 14.1667 7.62508C14.1667 6.8473 14.0242 6.18397 13.7392 5.63508C13.4542 5.08619 13.1036 4.64175 12.6875 4.30175C12.2708 3.96175 11.8194 3.71536 11.3333 3.56258C10.8472 3.4098 10.4028 3.33341 10 3.33341C9.59723 3.33341 9.15278 3.4098 8.66667 3.56258C8.18056 3.71536 7.72917 3.96203 7.3125 4.30258C6.89584 4.64258 6.54528 5.08703 6.26084 5.63591C5.97639 6.1848 5.83389 6.84786 5.83334 7.62508C5.83334 8.52786 6.18417 9.49314 6.88584 10.5209C7.5875 11.5487 8.62556 12.6181 10 13.7292ZM10 15.8334C8.04167 14.389 6.58 12.9862 5.61501 11.6251C4.65001 10.264 4.16723 8.93064 4.16667 7.62508C4.16667 6.63897 4.34389 5.77425 4.69834 5.03091C5.05278 4.28758 5.50723 3.66619 6.06167 3.16675C6.61723 2.66675 7.24223 2.29175 7.93667 2.04175C8.63112 1.79175 9.31889 1.66675 10 1.66675C10.6806 1.66675 11.3681 1.79175 12.0625 2.04175C12.7569 2.29175 13.3819 2.66675 13.9375 3.16675C14.4931 3.66675 14.9481 4.28841 15.3025 5.03175C15.6569 5.77508 15.8339 6.63953 15.8333 7.62508C15.8333 8.93064 15.3506 10.264 14.385 11.6251C13.4194 12.9862 11.9578 14.389 10 15.8334ZM10 9.16675C10.4583 9.16675 10.8508 9.00341 11.1775 8.67675C11.5042 8.35008 11.6672 7.95786 11.6667 7.50008C11.6667 7.04175 11.5033 6.64925 11.1767 6.32258C10.85 5.99591 10.4578 5.83286 10 5.83341C9.54167 5.83341 9.14917 5.99675 8.8225 6.32341C8.49584 6.65008 8.33278 7.0423 8.33334 7.50008C8.33334 7.95841 8.49667 8.35091 8.82334 8.67758C9.15001 9.00425 9.54223 9.1673 10 9.16675ZM4.16667 18.3334V16.6667H15.8333V18.3334H4.16667Z" fill="#FFFFFF"/>
</svg>
