<svg xmlns="http://www.w3.org/2000/svg" width="60" height="59" viewBox="0 0 60 59" fill="none">
  <g clip-path="url(#clip0_4_12)">
    <path d="M21.8996 24.3299C23.1919 24.3299 24.2396 23.2822 24.2396 21.9899C24.2396 20.6976 23.1919 19.6499 21.8996 19.6499C20.6072 19.6499 19.5596 20.6976 19.5596 21.9899C19.5596 23.2822 20.6072 24.3299 21.8996 24.3299Z" fill="url(#paint0_linear_4_12)"/>
    <path d="M23.3096 17.06C24.5081 17.06 25.4796 16.0884 25.4796 14.89C25.4796 13.6915 24.5081 12.72 23.3096 12.72C22.1112 12.72 21.1396 13.6915 21.1396 14.89C21.1396 16.0884 22.1112 17.06 23.3096 17.06Z" fill="url(#paint1_linear_4_12)"/>
    <path d="M26.7595 12.0901C27.8586 12.0901 28.7495 11.1992 28.7495 10.1001C28.7495 9.00106 27.8586 8.11011 26.7595 8.11011C25.6605 8.11011 24.7695 9.00106 24.7695 10.1001C24.7695 11.1992 25.6605 12.0901 26.7595 12.0901Z" fill="url(#paint2_linear_4_12)"/>
    <path d="M31.0197 9.0799C31.8978 9.0799 32.6097 8.36803 32.6097 7.4899C32.6097 6.61177 31.8978 5.8999 31.0197 5.8999C30.1416 5.8999 29.4297 6.61177 29.4297 7.4899C29.4297 8.36803 30.1416 9.0799 31.0197 9.0799Z" fill="url(#paint3_linear_4_12)"/>
    <path d="M36.2546 7.09815C36.9167 6.75538 37.1756 5.94076 36.8328 5.27864C36.4901 4.61652 35.6755 4.35763 35.0133 4.7004C34.3512 5.04317 34.0923 5.8578 34.4351 6.51992C34.7779 7.18204 35.5925 7.44092 36.2546 7.09815Z" fill="url(#paint4_linear_4_12)"/>
    <path d="M41.2198 6.65541C41.7658 6.44437 42.0374 5.83062 41.8264 5.28456C41.6153 4.7385 41.0016 4.46691 40.4555 4.67794C39.9095 4.88898 39.6379 5.50273 39.8489 6.04879C40.0599 6.59485 40.6737 6.86644 41.2198 6.65541Z" fill="url(#paint5_linear_4_12)"/>
    <path d="M46.8931 7.75352C47.2109 7.40797 47.1883 6.87025 46.8428 6.55249C46.4972 6.23474 45.9595 6.25728 45.6417 6.60283C45.324 6.94839 45.3465 7.48611 45.6921 7.80386C46.0376 8.12161 46.5754 8.09908 46.8931 7.75352Z" fill="url(#paint6_linear_4_12)"/>
    <path d="M51.293 10.5562C51.5845 10.3662 51.6667 9.97588 51.4767 9.6844C51.2867 9.39292 50.8964 9.31067 50.6049 9.50068C50.3134 9.69069 50.2312 10.081 50.4212 10.3725C50.6112 10.664 51.0015 10.7462 51.293 10.5562Z" fill="url(#paint7_linear_4_12)"/>
    <path d="M37.2199 39.47C38.5122 39.47 39.5599 38.4224 39.5599 37.13C39.5599 35.8377 38.5122 34.79 37.2199 34.79C35.9275 34.79 34.8799 35.8377 34.8799 37.13C34.8799 38.4224 35.9275 39.47 37.2199 39.47Z" fill="url(#paint8_linear_4_12)"/>
    <path d="M35.8097 46.4001C37.0081 46.4001 37.9796 45.4285 37.9796 44.2301C37.9796 43.0316 37.0081 42.0601 35.8097 42.0601C34.6112 42.0601 33.6396 43.0316 33.6396 44.2301C33.6396 45.4285 34.6112 46.4001 35.8097 46.4001Z" fill="url(#paint9_linear_4_12)"/>
    <path d="M32.3601 51C33.4592 51 34.3501 50.1091 34.3501 49.01C34.3501 47.911 33.4592 47.02 32.3601 47.02C31.2611 47.02 30.3701 47.911 30.3701 49.01C30.3701 50.1091 31.2611 51 32.3601 51Z" fill="url(#paint10_linear_4_12)"/>
    <path d="M28.0998 53.22C28.9779 53.22 29.6898 52.5082 29.6898 51.63C29.6898 50.7519 28.9779 50.04 28.0998 50.04C27.2216 50.04 26.5098 50.7519 26.5098 51.63C26.5098 52.5082 27.2216 53.22 28.0998 53.22Z" fill="url(#paint11_linear_4_12)"/>
    <path d="M24.0942 54.427C24.7617 54.0948 25.0335 53.2843 24.7013 52.6169C24.3691 51.9494 23.5587 51.6776 22.8912 52.0098C22.2237 52.342 21.9519 53.1524 22.2841 53.8199C22.6164 54.4874 23.4268 54.7592 24.0942 54.427Z" fill="url(#paint12_linear_4_12)"/>
    <path d="M18.687 54.4302C19.2269 54.2038 19.481 53.5826 19.2546 53.0427C19.0282 52.5028 18.4071 52.2487 17.8672 52.4751C17.3273 52.7015 17.0732 53.3227 17.2996 53.8625C17.526 54.4024 18.1471 54.6565 18.687 54.4302Z" fill="url(#paint13_linear_4_12)"/>
    <path d="M13.478 52.5248C13.799 52.1822 13.7814 51.6443 13.4388 51.3233C13.0962 51.0024 12.5583 51.02 12.2374 51.3626C11.9164 51.7052 11.934 52.2431 12.2766 52.564C12.6192 52.885 13.1571 52.8674 13.478 52.5248Z" fill="url(#paint14_linear_4_12)"/>
    <path d="M8.50518 49.6185C8.79787 49.4304 8.88265 49.0406 8.69452 48.7479C8.5064 48.4552 8.11662 48.3704 7.82392 48.5585C7.53122 48.7467 7.44645 49.1364 7.63457 49.4291C7.8227 49.7218 8.21248 49.8066 8.50518 49.6185Z" fill="url(#paint15_linear_4_12)"/>
    <path d="M29.5002 21.1299C30.7925 21.1299 31.8402 20.0823 31.8402 18.79C31.8402 17.4976 30.7925 16.45 29.5002 16.45C28.2078 16.45 27.1602 17.4976 27.1602 18.79C27.1602 20.0823 28.2078 21.1299 29.5002 21.1299Z" fill="url(#paint16_linear_4_12)"/>
    <path d="M35.5196 16.9401C36.7181 16.9401 37.6896 15.9686 37.6896 14.7701C37.6896 13.5716 36.7181 12.6001 35.5196 12.6001C34.3212 12.6001 33.3496 13.5716 33.3496 14.7701C33.3496 15.9686 34.3212 16.9401 35.5196 16.9401Z" fill="url(#paint17_linear_4_12)"/>
    <path d="M41.3298 15.8101C42.4289 15.8101 43.3198 14.9191 43.3198 13.8201C43.3198 12.721 42.4289 11.8301 41.3298 11.8301C40.2308 11.8301 39.3398 12.721 39.3398 13.8201C39.3398 14.9191 40.2308 15.8101 41.3298 15.8101Z" fill="url(#paint18_linear_4_12)"/>
    <path d="M46.2004 16.5699C47.0785 16.5699 47.7904 15.858 47.7904 14.9799C47.7904 14.1018 47.0785 13.3899 46.2004 13.3899C45.3222 13.3899 44.6104 14.1018 44.6104 14.9799C44.6104 15.858 45.3222 16.5699 46.2004 16.5699Z" fill="url(#paint19_linear_4_12)"/>
    <path d="M51.8723 17.5391C52.1004 16.8293 51.71 16.0689 51.0002 15.8407C50.2904 15.6126 49.53 16.003 49.3018 16.7128C49.0736 17.4226 49.4641 18.183 50.1739 18.4112C50.8837 18.6394 51.6441 18.2489 51.8723 17.5391Z" fill="url(#paint20_linear_4_12)"/>
    <path d="M55.3976 21.0679C55.6357 20.5271 55.3904 19.8956 54.8496 19.6574C54.3088 19.4192 53.6773 19.6645 53.4391 20.2053C53.2009 20.7462 53.4462 21.3777 53.987 21.6159C54.5279 21.854 55.1594 21.6087 55.3976 21.0679Z" fill="url(#paint21_linear_4_12)"/>
    <path d="M57.2326 26.3897C57.7018 26.3745 58.0698 25.9819 58.0547 25.5127C58.0395 25.0435 57.6469 24.6754 57.1777 24.6906C56.7085 24.7057 56.3404 25.0984 56.3556 25.5676C56.3707 26.0368 56.7634 26.4048 57.2326 26.3897Z" fill="url(#paint22_linear_4_12)"/>
    <path d="M59.1088 31C59.1813 30.6597 58.9642 30.325 58.6239 30.2525C58.2836 30.18 57.9489 30.3971 57.8764 30.7374C57.8039 31.0776 58.021 31.4123 58.3613 31.4848C58.7016 31.5573 59.0362 31.3403 59.1088 31Z" fill="url(#paint23_linear_4_12)"/>
    <path d="M29.6203 42.67C30.9126 42.67 31.9603 41.6223 31.9603 40.33C31.9603 39.0376 30.9126 37.99 29.6203 37.99C28.3279 37.99 27.2803 39.0376 27.2803 40.33C27.2803 41.6223 28.3279 42.67 29.6203 42.67Z" fill="url(#paint24_linear_4_12)"/>
    <path d="M23.5997 46.5199C24.7981 46.5199 25.7697 45.5484 25.7697 44.3499C25.7697 43.1515 24.7981 42.1799 23.5997 42.1799C22.4012 42.1799 21.4297 43.1515 21.4297 44.3499C21.4297 45.5484 22.4012 46.5199 23.5997 46.5199Z" fill="url(#paint25_linear_4_12)"/>
    <path d="M17.78 47.2901C18.8791 47.2901 19.77 46.3991 19.77 45.3001C19.77 44.201 18.8791 43.3101 17.78 43.3101C16.681 43.3101 15.79 44.201 15.79 45.3001C15.79 46.3991 16.681 47.2901 17.78 47.2901Z" fill="url(#paint26_linear_4_12)"/>
    <path d="M12.9201 45.73C13.7982 45.73 14.5101 45.0182 14.5101 44.14C14.5101 43.2619 13.7982 42.55 12.9201 42.55C12.0419 42.55 11.3301 43.2619 11.3301 44.14C11.3301 45.0182 12.0419 45.73 12.9201 45.73Z" fill="url(#paint27_linear_4_12)"/>
    <path d="M9.81849 42.4371C10.0577 41.7309 9.67907 40.9645 8.97288 40.7253C8.2667 40.4862 7.50034 40.8648 7.26118 41.571C7.02201 42.2771 7.4006 43.0435 8.10678 43.2827C8.81297 43.5218 9.57932 43.1432 9.81849 42.4371Z" fill="url(#paint28_linear_4_12)"/>
    <path d="M5.6812 38.8739C5.90343 38.3263 5.63969 37.7023 5.09213 37.48C4.54456 37.2578 3.92052 37.5215 3.69829 38.0691C3.47605 38.6167 3.73979 39.2407 4.28735 39.4629C4.83492 39.6852 5.45896 39.4214 5.6812 38.8739Z" fill="url(#paint29_linear_4_12)"/>
    <path d="M1.93649 34.4272C2.40581 34.4165 2.77757 34.0273 2.76684 33.558C2.75611 33.0887 2.36695 32.7169 1.89763 32.7276C1.42831 32.7384 1.05655 33.1275 1.06728 33.5969C1.07802 34.0662 1.46718 34.4379 1.93649 34.4272Z" fill="url(#paint30_linear_4_12)"/>
    <path d="M1.24187 28.3762C1.31658 28.0364 1.10167 27.7003 0.761846 27.6256C0.422023 27.5509 0.0859747 27.7658 0.0112598 28.1056C-0.0634551 28.4455 0.151457 28.7815 0.491279 28.8562C0.831102 28.9309 1.16715 28.716 1.24187 28.3762Z" fill="url(#paint31_linear_4_12)"/>
    <path d="M37.13 24.2401C38.4224 24.2401 39.47 23.1924 39.47 21.9001C39.47 20.6077 38.4224 19.5601 37.13 19.5601C35.8377 19.5601 34.79 20.6077 34.79 21.9001C34.79 23.1924 35.8377 24.2401 37.13 24.2401Z" fill="url(#paint32_linear_4_12)"/>
    <path d="M44.2296 25.4799C45.428 25.4799 46.3996 24.5084 46.3996 23.3099C46.3996 22.1114 45.428 21.1399 44.2296 21.1399C43.0311 21.1399 42.0596 22.1114 42.0596 23.3099C42.0596 24.5084 43.0311 25.4799 44.2296 25.4799Z" fill="url(#paint33_linear_4_12)"/>
    <path d="M49.0095 28.75C50.1086 28.75 50.9995 27.8591 50.9995 26.76C50.9995 25.661 50.1086 24.77 49.0095 24.77C47.9105 24.77 47.0195 25.661 47.0195 26.76C47.0195 27.8591 47.9105 28.75 49.0095 28.75Z" fill="url(#paint34_linear_4_12)"/>
    <path d="M51.63 32.6099C52.5082 32.6099 53.22 31.8981 53.22 31.0199C53.22 30.1418 52.5082 29.4299 51.63 29.4299C50.7519 29.4299 50.04 30.1418 50.04 31.0199C50.04 31.8981 50.7519 32.6099 51.63 32.6099Z" fill="url(#paint35_linear_4_12)"/>
    <path d="M53.8467 36.8252C54.5074 36.4797 54.763 35.6641 54.4176 35.0033C54.0722 34.3426 53.2565 34.087 52.5958 34.4324C51.9351 34.7778 51.6794 35.5935 52.0249 36.2542C52.3703 36.915 53.186 37.1706 53.8467 36.8252Z" fill="url(#paint36_linear_4_12)"/>
    <path d="M53.8253 41.8398C54.3789 41.6331 54.6601 41.0167 54.4533 40.4631C54.2466 39.9095 53.6302 39.6283 53.0766 39.8351C52.523 40.0419 52.2418 40.6582 52.4486 41.2118C52.6554 41.7654 53.2717 42.0466 53.8253 41.8398Z" fill="url(#paint37_linear_4_12)"/>
    <path d="M52.5678 46.8431C52.8869 46.4987 52.8665 45.9609 52.5221 45.6418C52.1778 45.3228 51.64 45.3432 51.3209 45.6876C51.0018 46.0319 51.0223 46.5697 51.3666 46.8888C51.711 47.2079 52.2488 47.1874 52.5678 46.8431Z" fill="url(#paint38_linear_4_12)"/>
    <path d="M49.4362 51.4809C49.7275 51.2907 49.8094 50.9003 49.6192 50.609C49.4289 50.3177 49.0385 50.2357 48.7472 50.426C48.4559 50.6163 48.374 51.0067 48.5642 51.298C48.7545 51.5893 49.1449 51.6712 49.4362 51.4809Z" fill="url(#paint39_linear_4_12)"/>
    <path d="M21.9904 39.5599C23.2827 39.5599 24.3304 38.5122 24.3304 37.2199C24.3304 35.9275 23.2827 34.8799 21.9904 34.8799C20.698 34.8799 19.6504 35.9275 19.6504 37.2199C19.6504 38.5122 20.698 39.5599 21.9904 39.5599Z" fill="url(#paint40_linear_4_12)"/>
    <path d="M14.8897 37.9799C16.0882 37.9799 17.0597 37.0084 17.0597 35.8099C17.0597 34.6114 16.0882 33.6399 14.8897 33.6399C13.6913 33.6399 12.7197 34.6114 12.7197 35.8099C12.7197 37.0084 13.6913 37.9799 14.8897 37.9799Z" fill="url(#paint41_linear_4_12)"/>
    <path d="M10.1004 34.3501C11.1994 34.3501 12.0904 33.4592 12.0904 32.3601C12.0904 31.2611 11.1994 30.3701 10.1004 30.3701C9.00131 30.3701 8.11035 31.2611 8.11035 32.3601C8.11035 33.4592 9.00131 34.3501 10.1004 34.3501Z" fill="url(#paint42_linear_4_12)"/>
    <path d="M7.49039 29.69C8.36852 29.69 9.08039 28.9781 9.08039 28.1C9.08039 27.2219 8.36852 26.51 7.49039 26.51C6.61226 26.51 5.90039 27.2219 5.90039 28.1C5.90039 28.9781 6.61226 29.69 7.49039 29.69Z" fill="url(#paint43_linear_4_12)"/>
    <path d="M6.50547 24.6974C7.17149 24.3623 7.43974 23.5507 7.10462 22.8847C6.7695 22.2187 5.95791 21.9504 5.29188 22.2855C4.62586 22.6207 4.35761 23.4323 4.69273 24.0983C5.02785 24.7643 5.83944 25.0326 6.50547 24.6974Z" fill="url(#paint44_linear_4_12)"/>
    <path d="M6.07941 19.2719C6.6267 19.049 6.88968 18.4247 6.66678 17.8774C6.44387 17.3301 5.81951 17.0671 5.27221 17.29C4.72492 17.5129 4.46195 18.1373 4.68485 18.6846C4.90775 19.2319 5.53212 19.4948 6.07941 19.2719Z" fill="url(#paint45_linear_4_12)"/>
    <path d="M7.79927 13.4375C8.12146 13.096 8.10587 12.5581 7.76445 12.2359C7.42302 11.9137 6.88506 11.9293 6.56287 12.2707C6.24068 12.6121 6.25627 13.1501 6.59769 13.4723C6.93911 13.7945 7.47708 13.7789 7.79927 13.4375Z" fill="url(#paint46_linear_4_12)"/>
    <path d="M10.3671 8.69824C10.6597 8.50986 10.7441 8.12001 10.5557 7.82747C10.3673 7.53494 9.97748 7.45051 9.68495 7.63889C9.39242 7.82727 9.30799 8.21712 9.49636 8.50966C9.68474 8.80219 10.0746 8.88662 10.3671 8.69824Z" fill="url(#paint47_linear_4_12)"/>
    <path d="M40.3302 31.8399C41.6226 31.8399 42.6702 30.7923 42.6702 29.4999C42.6702 28.2076 41.6226 27.1599 40.3302 27.1599C39.0379 27.1599 37.9902 28.2076 37.9902 29.4999C37.9902 30.7923 39.0379 31.8399 40.3302 31.8399Z" fill="url(#paint48_linear_4_12)"/>
    <path d="M44.3497 37.6901C45.5481 37.6901 46.5197 36.7186 46.5197 35.5201C46.5197 34.3216 45.5481 33.3501 44.3497 33.3501C43.1512 33.3501 42.1797 34.3216 42.1797 35.5201C42.1797 36.7186 43.1512 37.6901 44.3497 37.6901Z" fill="url(#paint49_linear_4_12)"/>
    <path d="M45.2996 43.3201C46.3986 43.3201 47.2896 42.4291 47.2896 41.3301C47.2896 40.231 46.3986 39.3401 45.2996 39.3401C44.2005 39.3401 43.3096 40.231 43.3096 41.3301C43.3096 42.4291 44.2005 43.3201 45.2996 43.3201Z" fill="url(#paint50_linear_4_12)"/>
    <path d="M44.1398 47.7901C45.0179 47.7901 45.7298 47.0782 45.7298 46.2001C45.7298 45.322 45.0179 44.6101 44.1398 44.6101C43.2617 44.6101 42.5498 45.322 42.5498 46.2001C42.5498 47.0782 43.2617 47.7901 44.1398 47.7901Z" fill="url(#paint51_linear_4_12)"/>
    <path d="M43.2861 50.9836C43.5094 50.2723 43.1138 49.5146 42.4024 49.2912C41.6911 49.0679 40.9334 49.4635 40.71 50.1749C40.4867 50.8862 40.8823 51.6439 41.5937 51.8673C42.305 52.0906 43.0627 51.695 43.2861 50.9836Z" fill="url(#paint52_linear_4_12)"/>
    <path d="M39.4418 54.8638C39.684 54.3308 39.4481 53.7025 38.9151 53.4604C38.3821 53.2182 37.7538 53.454 37.5116 53.9871C37.2695 54.5201 37.5053 55.1484 38.0383 55.3905C38.5713 55.6327 39.1997 55.3969 39.4418 54.8638Z" fill="url(#paint53_linear_4_12)"/>
    <path d="M33.6132 58.0519C34.0823 58.0338 34.4479 57.6389 34.4298 57.1698C34.4117 56.7007 34.0167 56.3351 33.5476 56.3532C33.0785 56.3713 32.7129 56.7663 32.731 57.2354C32.7491 57.7044 33.1441 58.07 33.6132 58.0519Z" fill="url(#paint54_linear_4_12)"/>
    <path d="M18.7902 31.96C20.0825 31.96 21.1302 30.9124 21.1302 29.62C21.1302 28.3277 20.0825 27.28 18.7902 27.28C17.4978 27.28 16.4502 28.3277 16.4502 29.62C16.4502 30.9124 17.4978 31.96 18.7902 31.96Z" fill="url(#paint55_linear_4_12)"/>
    <path d="M14.7696 25.7699C15.9681 25.7699 16.9396 24.7984 16.9396 23.5999C16.9396 22.4015 15.9681 21.4299 14.7696 21.4299C13.5712 21.4299 12.5996 22.4015 12.5996 23.5999C12.5996 24.7984 13.5712 25.7699 14.7696 25.7699Z" fill="url(#paint56_linear_4_12)"/>
    <path d="M13.8201 19.77C14.9191 19.77 15.8101 18.8791 15.8101 17.78C15.8101 16.681 14.9191 15.79 13.8201 15.79C12.721 15.79 11.8301 16.681 11.8301 17.78C11.8301 18.8791 12.721 19.77 13.8201 19.77Z" fill="url(#paint57_linear_4_12)"/>
    <path d="M14.9796 14.5101C15.8578 14.5101 16.5696 13.7982 16.5696 12.9201C16.5696 12.0419 15.8578 11.3301 14.9796 11.3301C14.1015 11.3301 13.3896 12.0419 13.3896 12.9201C13.3896 13.7982 14.1015 14.5101 14.9796 14.5101Z" fill="url(#paint58_linear_4_12)"/>
    <path d="M18.3996 8.96627C18.634 8.25847 18.2502 7.49471 17.5424 7.26036C16.8346 7.026 16.0708 7.4098 15.8364 8.11759C15.6021 8.82539 15.9859 9.58915 16.6937 9.82351C17.4015 10.0579 18.1652 9.67406 18.3996 8.96627Z" fill="url(#paint59_linear_4_12)"/>
    <path d="M21.617 5.10174C21.8434 4.5619 21.5894 3.94068 21.0496 3.71419C20.5097 3.48771 19.8885 3.74174 19.662 4.28157C19.4356 4.82141 19.6896 5.44263 20.2294 5.66912C20.7693 5.8956 21.3905 5.64158 21.617 5.10174Z" fill="url(#paint60_linear_4_12)"/>
    <path d="M25.5609 2.7655C26.0301 2.75166 26.3993 2.36004 26.3855 1.8908C26.3716 1.42156 25.98 1.0524 25.5108 1.06624C25.0415 1.08009 24.6724 1.4717 24.6862 1.94094C24.7 2.41018 25.0917 2.77935 25.5609 2.7655Z" fill="url(#paint61_linear_4_12)"/>
    <path d="M31.4859 0.756197C31.5595 0.416141 31.3436 0.0807699 31.0035 0.00712294C30.6635 -0.066524 30.3281 0.149442 30.2544 0.489498C30.1808 0.829554 30.3968 1.16493 30.7368 1.23857C31.0769 1.31222 31.4122 1.09625 31.4859 0.756197Z" fill="url(#paint62_linear_4_12)"/>
  </g>
  <defs>
    <linearGradient id="paint0_linear_4_12" x1="10.0396" y1="43.9699" x2="28.8296" y2="9.1499" gradientUnits="userSpaceOnUse">
      <stop stop-color="#7C4A9D"/>
      <stop offset="0.99" stop-color="#C83493"/>
    </linearGradient>
    <linearGradient id="paint1_linear_4_12" x1="8.16965" y1="42.96" x2="26.9496" y2="8.13997" gradientUnits="userSpaceOnUse">
      <stop stop-color="#7C4A9D"/>
      <stop offset="0.99" stop-color="#C83493"/>
    </linearGradient>
    <linearGradient id="paint2_linear_4_12" x1="8.83953" y1="43.3201" x2="27.6195" y2="8.50011" gradientUnits="userSpaceOnUse">
      <stop stop-color="#7C4A9D"/>
      <stop offset="0.99" stop-color="#C83493"/>
    </linearGradient>
    <linearGradient id="paint3_linear_4_12" x1="11.0397" y1="44.5099" x2="29.8297" y2="9.6899" gradientUnits="userSpaceOnUse">
      <stop stop-color="#7C4A9D"/>
      <stop offset="0.99" stop-color="#C83493"/>
    </linearGradient>
    <linearGradient id="paint4_linear_4_12" x1="13.953" y1="46.0796" x2="32.743" y2="11.2596" gradientUnits="userSpaceOnUse">
      <stop stop-color="#7C4A9D"/>
      <stop offset="0.99" stop-color="#C83493"/>
    </linearGradient>
    <linearGradient id="paint5_linear_4_12" x1="17.8881" y1="48.2076" x2="36.6781" y2="13.3775" gradientUnits="userSpaceOnUse">
      <stop stop-color="#7C4A9D"/>
      <stop offset="0.99" stop-color="#C83493"/>
    </linearGradient>
    <linearGradient id="paint6_linear_4_12" x1="22.7194" y1="50.8048" x2="41.5094" y2="15.9848" gradientUnits="userSpaceOnUse">
      <stop stop-color="#7C4A9D"/>
      <stop offset="0.99" stop-color="#C83493"/>
    </linearGradient>
    <linearGradient id="paint7_linear_4_12" x1="27.5405" y1="53.4029" x2="46.3305" y2="18.5829" gradientUnits="userSpaceOnUse">
      <stop stop-color="#7C4A9D"/>
      <stop offset="0.99" stop-color="#C83493"/>
    </linearGradient>
    <linearGradient id="paint8_linear_4_12" x1="28.2299" y1="53.79" x2="47.0199" y2="18.96" gradientUnits="userSpaceOnUse">
      <stop stop-color="#7C4A9D"/>
      <stop offset="0.99" stop-color="#C83493"/>
    </linearGradient>
    <linearGradient id="paint9_linear_4_12" x1="30.1096" y1="54.8001" x2="48.8896" y2="19.9701" gradientUnits="userSpaceOnUse">
      <stop stop-color="#7C4A9D"/>
      <stop offset="0.99" stop-color="#C83493"/>
    </linearGradient>
    <linearGradient id="paint10_linear_4_12" x1="29.4401" y1="54.44" x2="48.2201" y2="19.61" gradientUnits="userSpaceOnUse">
      <stop stop-color="#7C4A9D"/>
      <stop offset="0.99" stop-color="#C83493"/>
    </linearGradient>
    <linearGradient id="paint11_linear_4_12" x1="27.2298" y1="53.25" x2="46.0198" y2="18.42" gradientUnits="userSpaceOnUse">
      <stop stop-color="#7C4A9D"/>
      <stop offset="0.99" stop-color="#C83493"/>
    </linearGradient>
    <linearGradient id="paint12_linear_4_12" x1="24.3197" y1="51.6815" x2="43.1097" y2="16.8515" gradientUnits="userSpaceOnUse">
      <stop stop-color="#7C4A9D"/>
      <stop offset="0.99" stop-color="#C83493"/>
    </linearGradient>
    <linearGradient id="paint13_linear_4_12" x1="20.3757" y1="49.554" x2="39.1656" y2="14.734" gradientUnits="userSpaceOnUse">
      <stop stop-color="#7C4A9D"/>
      <stop offset="0.99" stop-color="#C83493"/>
    </linearGradient>
    <linearGradient id="paint14_linear_4_12" x1="15.5548" y1="46.9525" x2="34.3448" y2="12.1225" gradientUnits="userSpaceOnUse">
      <stop stop-color="#7C4A9D"/>
      <stop offset="0.99" stop-color="#C83493"/>
    </linearGradient>
    <linearGradient id="paint15_linear_4_12" x1="10.727" y1="44.3508" x2="29.517" y2="9.52079" gradientUnits="userSpaceOnUse">
      <stop stop-color="#7C4A9D"/>
      <stop offset="0.99" stop-color="#C83493"/>
    </linearGradient>
    <linearGradient id="paint16_linear_4_12" x1="14.5902" y1="46.4299" x2="33.3701" y2="11.5999" gradientUnits="userSpaceOnUse">
      <stop stop-color="#7C4A9D"/>
      <stop offset="0.99" stop-color="#C83493"/>
    </linearGradient>
    <linearGradient id="paint17_linear_4_12" x1="17.5696" y1="48.0301" x2="36.3596" y2="13.2101" gradientUnits="userSpaceOnUse">
      <stop stop-color="#7C4A9D"/>
      <stop offset="0.99" stop-color="#C83493"/>
    </linearGradient>
    <linearGradient id="paint18_linear_4_12" x1="21.6798" y1="50.2501" x2="40.4699" y2="15.4301" gradientUnits="userSpaceOnUse">
      <stop stop-color="#7C4A9D"/>
      <stop offset="0.99" stop-color="#C83493"/>
    </linearGradient>
    <linearGradient id="paint19_linear_4_12" x1="25.9303" y1="52.5499" x2="44.7203" y2="17.7199" gradientUnits="userSpaceOnUse">
      <stop stop-color="#7C4A9D"/>
      <stop offset="0.99" stop-color="#C83493"/>
    </linearGradient>
    <linearGradient id="paint20_linear_4_12" x1="30.2295" y1="54.8665" x2="49.0195" y2="20.0365" gradientUnits="userSpaceOnUse">
      <stop stop-color="#7C4A9D"/>
      <stop offset="0.99" stop-color="#C83493"/>
    </linearGradient>
    <linearGradient id="paint21_linear_4_12" x1="34.6601" y1="57.2576" x2="53.4501" y2="22.4377" gradientUnits="userSpaceOnUse">
      <stop stop-color="#7C4A9D"/>
      <stop offset="0.99" stop-color="#C83493"/>
    </linearGradient>
    <linearGradient id="paint22_linear_4_12" x1="38.8709" y1="59.5235" x2="57.6509" y2="24.7035" gradientUnits="userSpaceOnUse">
      <stop stop-color="#7C4A9D"/>
      <stop offset="0.99" stop-color="#C83493"/>
    </linearGradient>
    <linearGradient id="paint23_linear_4_12" x1="42.1018" y1="61.2698" x2="60.8818" y2="26.4399" gradientUnits="userSpaceOnUse">
      <stop stop-color="#7C4A9D"/>
      <stop offset="0.99" stop-color="#C83493"/>
    </linearGradient>
    <linearGradient id="paint24_linear_4_12" x1="23.6803" y1="51.33" x2="42.4703" y2="16.51" gradientUnits="userSpaceOnUse">
      <stop stop-color="#7C4A9D"/>
      <stop offset="0.99" stop-color="#C83493"/>
    </linearGradient>
    <linearGradient id="paint25_linear_4_12" x1="20.6997" y1="49.7199" x2="39.4897" y2="14.8999" gradientUnits="userSpaceOnUse">
      <stop stop-color="#7C4A9D"/>
      <stop offset="0.99" stop-color="#C83493"/>
    </linearGradient>
    <linearGradient id="paint26_linear_4_12" x1="16.59" y1="47.5101" x2="35.38" y2="12.6801" gradientUnits="userSpaceOnUse">
      <stop stop-color="#7C4A9D"/>
      <stop offset="0.99" stop-color="#C83493"/>
    </linearGradient>
    <linearGradient id="paint27_linear_4_12" x1="12.3401" y1="45.21" x2="31.1301" y2="10.39" gradientUnits="userSpaceOnUse">
      <stop stop-color="#7C4A9D"/>
      <stop offset="0.99" stop-color="#C83493"/>
    </linearGradient>
    <linearGradient id="paint28_linear_4_12" x1="8.05081" y1="42.9054" x2="26.8408" y2="8.08543" gradientUnits="userSpaceOnUse">
      <stop stop-color="#7C4A9D"/>
      <stop offset="0.99" stop-color="#C83493"/>
    </linearGradient>
    <linearGradient id="paint29_linear_4_12" x1="3.60526" y1="40.4955" x2="22.3953" y2="5.66546" gradientUnits="userSpaceOnUse">
      <stop stop-color="#7C4A9D"/>
      <stop offset="0.99" stop-color="#C83493"/>
    </linearGradient>
    <linearGradient id="paint30_linear_4_12" x1="-0.591252" y1="38.2325" x2="18.1888" y2="3.40249" gradientUnits="userSpaceOnUse">
      <stop stop-color="#7C4A9D"/>
      <stop offset="0.99" stop-color="#C83493"/>
    </linearGradient>
    <linearGradient id="paint31_linear_4_12" x1="-3.82312" y1="36.4868" x2="14.9569" y2="1.66685" gradientUnits="userSpaceOnUse">
      <stop stop-color="#7C4A9D"/>
      <stop offset="0.99" stop-color="#C83493"/>
    </linearGradient>
    <linearGradient id="paint32_linear_4_12" x1="21.8" y1="50.3201" x2="40.59" y2="15.4901" gradientUnits="userSpaceOnUse">
      <stop stop-color="#7C4A9D"/>
      <stop offset="0.99" stop-color="#C83493"/>
    </linearGradient>
    <linearGradient id="paint33_linear_4_12" x1="27.8896" y1="53.5999" x2="46.6796" y2="18.7799" gradientUnits="userSpaceOnUse">
      <stop stop-color="#7C4A9D"/>
      <stop offset="0.99" stop-color="#C83493"/>
    </linearGradient>
    <linearGradient id="paint34_linear_4_12" x1="33.0295" y1="56.38" x2="51.8195" y2="21.55" gradientUnits="userSpaceOnUse">
      <stop stop-color="#7C4A9D"/>
      <stop offset="0.99" stop-color="#C83493"/>
    </linearGradient>
    <linearGradient id="paint35_linear_4_12" x1="36.84" y1="58.4299" x2="55.63" y2="23.6099" gradientUnits="userSpaceOnUse">
      <stop stop-color="#7C4A9D"/>
      <stop offset="0.99" stop-color="#C83493"/>
    </linearGradient>
    <linearGradient id="paint36_linear_4_12" x1="40.008" y1="60.1276" x2="58.788" y2="25.3076" gradientUnits="userSpaceOnUse">
      <stop stop-color="#7C4A9D"/>
      <stop offset="0.99" stop-color="#C83493"/>
    </linearGradient>
    <linearGradient id="paint37_linear_4_12" x1="42.3439" y1="61.3999" x2="61.1339" y2="26.5799" gradientUnits="userSpaceOnUse">
      <stop stop-color="#7C4A9D"/>
      <stop offset="0.99" stop-color="#C83493"/>
    </linearGradient>
    <linearGradient id="paint38_linear_4_12" x1="43.4629" y1="61.9967" x2="62.2529" y2="27.1667" gradientUnits="userSpaceOnUse">
      <stop stop-color="#7C4A9D"/>
      <stop offset="0.99" stop-color="#C83493"/>
    </linearGradient>
    <linearGradient id="paint39_linear_4_12" x1="43.2017" y1="61.8652" x2="61.9918" y2="27.0452" gradientUnits="userSpaceOnUse">
      <stop stop-color="#7C4A9D"/>
      <stop offset="0.99" stop-color="#C83493"/>
    </linearGradient>
    <linearGradient id="paint40_linear_4_12" x1="16.4704" y1="47.4399" x2="35.2604" y2="12.6199" gradientUnits="userSpaceOnUse">
      <stop stop-color="#7C4A9D"/>
      <stop offset="0.99" stop-color="#C83493"/>
    </linearGradient>
    <linearGradient id="paint41_linear_4_12" x1="10.3797" y1="44.1599" x2="29.1697" y2="9.32989" gradientUnits="userSpaceOnUse">
      <stop stop-color="#7C4A9D"/>
      <stop offset="0.99" stop-color="#C83493"/>
    </linearGradient>
    <linearGradient id="paint42_linear_4_12" x1="5.24035" y1="41.3801" x2="24.0203" y2="6.56012" gradientUnits="userSpaceOnUse">
      <stop stop-color="#7C4A9D"/>
      <stop offset="0.99" stop-color="#C83493"/>
    </linearGradient>
    <linearGradient id="paint43_linear_4_12" x1="1.43039" y1="39.33" x2="20.2204" y2="4.50001" gradientUnits="userSpaceOnUse">
      <stop stop-color="#7C4A9D"/>
      <stop offset="0.99" stop-color="#C83493"/>
    </linearGradient>
    <linearGradient id="paint44_linear_4_12" x1="-1.7269" y1="37.6353" x2="17.0631" y2="2.80526" gradientUnits="userSpaceOnUse">
      <stop stop-color="#7C4A9D"/>
      <stop offset="0.99" stop-color="#C83493"/>
    </linearGradient>
    <linearGradient id="paint45_linear_4_12" x1="-4.07842" y1="36.351" x2="14.7116" y2="1.531" gradientUnits="userSpaceOnUse">
      <stop stop-color="#7C4A9D"/>
      <stop offset="0.99" stop-color="#C83493"/>
    </linearGradient>
    <linearGradient id="paint46_linear_4_12" x1="-5.18385" y1="35.7566" x2="13.6062" y2="0.936574" gradientUnits="userSpaceOnUse">
      <stop stop-color="#7C4A9D"/>
      <stop offset="0.99" stop-color="#C83493"/>
    </linearGradient>
    <linearGradient id="paint47_linear_4_12" x1="-4.93479" y1="35.8983" x2="13.8552" y2="1.06834" gradientUnits="userSpaceOnUse">
      <stop stop-color="#7C4A9D"/>
      <stop offset="0.99" stop-color="#C83493"/>
    </linearGradient>
    <linearGradient id="paint48_linear_4_12" x1="27.4502" y1="53.3699" x2="46.2403" y2="18.5399" gradientUnits="userSpaceOnUse">
      <stop stop-color="#7C4A9D"/>
      <stop offset="0.99" stop-color="#C83493"/>
    </linearGradient>
    <linearGradient id="paint49_linear_4_12" x1="33.0797" y1="56.4001" x2="51.8697" y2="21.5801" gradientUnits="userSpaceOnUse">
      <stop stop-color="#7C4A9D"/>
      <stop offset="0.99" stop-color="#C83493"/>
    </linearGradient>
    <linearGradient id="paint50_linear_4_12" x1="36.2496" y1="58.1101" x2="55.0296" y2="23.2901" gradientUnits="userSpaceOnUse">
      <stop stop-color="#7C4A9D"/>
      <stop offset="0.99" stop-color="#C83493"/>
    </linearGradient>
    <linearGradient id="paint51_linear_4_12" x1="37.3798" y1="58.7201" x2="56.1698" y2="23.9001" gradientUnits="userSpaceOnUse">
      <stop stop-color="#7C4A9D"/>
      <stop offset="0.99" stop-color="#C83493"/>
    </linearGradient>
    <linearGradient id="paint52_linear_4_12" x1="37.5612" y1="58.8169" x2="56.3411" y2="23.987" gradientUnits="userSpaceOnUse">
      <stop stop-color="#7C4A9D"/>
      <stop offset="0.99" stop-color="#C83493"/>
    </linearGradient>
    <linearGradient id="paint53_linear_4_12" x1="36.4313" y1="58.2099" x2="55.2213" y2="23.3899" gradientUnits="userSpaceOnUse">
      <stop stop-color="#7C4A9D"/>
      <stop offset="0.99" stop-color="#C83493"/>
    </linearGradient>
    <linearGradient id="paint54_linear_4_12" x1="33.7997" y1="56.795" x2="52.5798" y2="21.965" gradientUnits="userSpaceOnUse">
      <stop stop-color="#7C4A9D"/>
      <stop offset="0.99" stop-color="#C83493"/>
    </linearGradient>
    <linearGradient id="paint55_linear_4_12" x1="10.8202" y1="44.39" x2="29.6102" y2="9.57004" gradientUnits="userSpaceOnUse">
      <stop stop-color="#7C4A9D"/>
      <stop offset="0.99" stop-color="#C83493"/>
    </linearGradient>
    <linearGradient id="paint56_linear_4_12" x1="5.18961" y1="41.3499" x2="23.9696" y2="6.52993" gradientUnits="userSpaceOnUse">
      <stop stop-color="#7C4A9D"/>
      <stop offset="0.99" stop-color="#C83493"/>
    </linearGradient>
    <linearGradient id="paint57_linear_4_12" x1="2.03008" y1="39.65" x2="20.8101" y2="4.82004" gradientUnits="userSpaceOnUse">
      <stop stop-color="#7C4A9D"/>
      <stop offset="0.99" stop-color="#C83493"/>
    </linearGradient>
    <linearGradient id="paint58_linear_4_12" x1="0.88965" y1="39.0401" x2="19.6797" y2="4.21008" gradientUnits="userSpaceOnUse">
      <stop stop-color="#7C4A9D"/>
      <stop offset="0.99" stop-color="#C83493"/>
    </linearGradient>
    <linearGradient id="paint59_linear_4_12" x1="0.716091" y1="38.937" x2="19.4961" y2="4.117" gradientUnits="userSpaceOnUse">
      <stop stop-color="#7C4A9D"/>
      <stop offset="0.99" stop-color="#C83493"/>
    </linearGradient>
    <linearGradient id="paint60_linear_4_12" x1="1.83706" y1="39.5504" x2="20.6271" y2="4.72039" gradientUnits="userSpaceOnUse">
      <stop stop-color="#7C4A9D"/>
      <stop offset="0.99" stop-color="#C83493"/>
    </linearGradient>
    <linearGradient id="paint61_linear_4_12" x1="4.47818" y1="40.9682" x2="23.2582" y2="6.1482" gradientUnits="userSpaceOnUse">
      <stop stop-color="#7C4A9D"/>
      <stop offset="0.99" stop-color="#C83493"/>
    </linearGradient>
    <linearGradient id="paint62_linear_4_12" x1="8.05387" y1="42.8931" x2="26.8439" y2="8.07312" gradientUnits="userSpaceOnUse">
      <stop stop-color="#7C4A9D"/>
      <stop offset="0.99" stop-color="#C83493"/>
    </linearGradient>
    <clipPath id="clip0_4_12">
      <rect width="59.12" height="58.05" fill="white"/>
    </clipPath>
  </defs>
</svg>