<svg width="293" height="112" viewBox="0 0 293 112" fill="none" xmlns="http://www.w3.org/2000/svg">
<g clip-path="url(#clip0_12_3483)">
<path d="M41.8593 46.9416C44.3295 46.9416 46.3319 44.9203 46.3319 42.4268C46.3319 39.9334 44.3295 37.9121 41.8593 37.9121C39.3892 37.9121 37.3867 39.9334 37.3867 42.4268C37.3867 44.9203 39.3892 46.9416 41.8593 46.9416Z" fill="white"/>
<path d="M44.5539 32.915C46.8446 32.915 48.7016 31.0405 48.7016 28.7282C48.7016 26.416 46.8446 24.5415 44.5539 24.5415C42.2632 24.5415 40.4062 26.416 40.4062 28.7282C40.4062 31.0405 42.2632 32.915 44.5539 32.915Z" fill="white"/>
<path d="M51.1483 23.3261C53.249 23.3261 54.952 21.6071 54.952 19.4867C54.952 17.3662 53.249 15.6472 51.1483 15.6472C49.0477 15.6472 47.3447 17.3662 47.3447 19.4867C47.3447 21.6071 49.0477 23.3261 51.1483 23.3261Z" fill="white"/>
<path d="M59.291 17.5187C60.9695 17.5187 62.3301 16.1452 62.3301 14.451C62.3301 12.7568 60.9695 11.3833 59.291 11.3833C57.6126 11.3833 56.252 12.7568 56.252 14.451C56.252 16.1452 57.6126 17.5187 59.291 17.5187Z" fill="white"/>
<path d="M69.2959 13.6948C70.5614 13.0335 71.0563 11.4618 70.4011 10.1843C69.7459 8.90681 68.1889 8.40733 66.9233 9.06866C65.6578 9.73 65.1629 11.3017 65.8181 12.5792C66.4733 13.8567 68.0303 14.3561 69.2959 13.6948Z" fill="white"/>
<path d="M78.7871 12.8405C79.8308 12.4333 80.3499 11.2492 79.9465 10.1956C79.5432 9.14204 78.3701 8.61804 77.3264 9.02521C76.2826 9.43238 75.7635 10.6165 76.1669 11.6701C76.5703 12.7236 77.7434 13.2476 78.7871 12.8405Z" fill="white"/>
<path d="M89.6302 14.9592C90.2375 14.2925 90.1945 13.2551 89.534 12.642C88.8735 12.0289 87.8457 12.0724 87.2384 12.7391C86.631 13.4058 86.6741 14.4433 87.3346 15.0563C87.9951 15.6694 89.0228 15.6259 89.6302 14.9592Z" fill="white"/>
<path d="M98.0398 20.3669C98.5969 20.0003 98.7541 19.2472 98.3909 18.6848C98.0277 18.1224 97.2817 17.9637 96.7246 18.3304C96.1675 18.697 96.0102 19.45 96.3734 20.0124C96.7366 20.5748 97.4826 20.7335 98.0398 20.3669Z" fill="white"/>
<path d="M71.1415 76.1523C73.6117 76.1523 75.6141 74.1309 75.6141 71.6375C75.6141 69.1441 73.6117 67.1228 71.1415 67.1228C68.6714 67.1228 66.6689 69.1441 66.6689 71.6375C66.6689 74.1309 68.6714 76.1523 71.1415 76.1523Z" fill="white"/>
<path d="M68.4465 89.5229C70.7372 89.5229 72.5942 87.6484 72.5942 85.3361C72.5942 83.0239 70.7372 81.1494 68.4465 81.1494C66.1558 81.1494 64.2988 83.0239 64.2988 85.3361C64.2988 87.6484 66.1558 89.5229 68.4465 89.5229Z" fill="white"/>
<path d="M61.8515 98.3979C63.9522 98.3979 65.6551 96.6789 65.6551 94.5584C65.6551 92.438 63.9522 90.719 61.8515 90.719C59.7508 90.719 58.0479 92.438 58.0479 94.5584C58.0479 96.6789 59.7508 98.3979 61.8515 98.3979Z" fill="white"/>
<path d="M53.709 102.681C55.3874 102.681 56.7481 101.308 56.7481 99.6134C56.7481 97.9191 55.3874 96.5457 53.709 96.5457C52.0306 96.5457 50.6699 97.9191 50.6699 99.6134C50.6699 101.308 52.0306 102.681 53.709 102.681Z" fill="white"/>
<path d="M46.0529 105.01C47.3287 104.369 47.8482 102.805 47.2132 101.518C46.5782 100.23 45.0292 99.7053 43.7534 100.346C42.4776 100.987 41.9581 102.551 42.5931 103.839C43.2281 105.126 44.7771 105.651 46.0529 105.01Z" fill="white"/>
<path d="M35.7186 105.016C36.7505 104.579 37.2363 103.381 36.8035 102.339C36.3708 101.297 35.1835 100.807 34.1516 101.244C33.1197 101.681 32.634 102.879 33.0667 103.921C33.4994 104.962 34.6867 105.453 35.7186 105.016Z" fill="white"/>
<path d="M25.7614 101.34C26.3748 100.679 26.3412 99.6413 25.6864 99.0221C25.0316 98.4029 24.0034 98.4368 23.39 99.0978C22.7766 99.7588 22.8101 100.797 23.465 101.416C24.1198 102.035 25.1479 102.001 25.7614 101.34Z" fill="white"/>
<path d="M16.2575 95.7326C16.8169 95.3696 16.979 94.6176 16.6194 94.0528C16.2598 93.4881 15.5148 93.3246 14.9554 93.6875C14.3959 94.0505 14.2339 94.8025 14.5935 95.3672C14.953 95.932 15.698 96.0955 16.2575 95.7326Z" fill="white"/>
<path d="M56.3857 40.7677C58.8558 40.7677 60.8583 38.7464 60.8583 36.253C60.8583 33.7596 58.8558 31.7383 56.3857 31.7383C53.9155 31.7383 51.9131 33.7596 51.9131 36.253C51.9131 38.7464 53.9155 40.7677 56.3857 40.7677Z" fill="white"/>
<path d="M67.8918 32.6835C70.1825 32.6835 72.0395 30.8091 72.0395 28.4968C72.0395 26.1845 70.1825 24.3101 67.8918 24.3101C65.6011 24.3101 63.7441 26.1845 63.7441 28.4968C63.7441 30.8091 65.6011 32.6835 67.8918 32.6835Z" fill="white"/>
<path d="M78.997 30.5034C81.0977 30.5034 82.8006 28.7844 82.8006 26.6639C82.8006 24.5434 81.0977 22.8245 78.997 22.8245C76.8963 22.8245 75.1934 24.5434 75.1934 26.6639C75.1934 28.7844 76.8963 30.5034 78.997 30.5034Z" fill="white"/>
<path d="M88.3047 31.9696C89.9831 31.9696 91.3438 30.5962 91.3438 28.9019C91.3438 27.2077 89.9831 25.8342 88.3047 25.8342C86.6263 25.8342 85.2656 27.2077 85.2656 28.9019C85.2656 30.5962 86.6263 31.9696 88.3047 31.9696Z" fill="white"/>
<path d="M99.1481 33.8394C99.5842 32.4699 98.8379 31.0028 97.4812 30.5626C96.1245 30.1224 94.6711 30.8757 94.235 32.2452C93.7989 33.6147 94.5451 35.0817 95.9019 35.5219C97.2586 35.9622 98.7119 35.2088 99.1481 33.8394Z" fill="white"/>
<path d="M105.884 40.6477C106.339 39.6043 105.87 38.3859 104.837 37.9263C103.803 37.4667 102.596 37.9401 102.141 38.9835C101.685 40.0269 102.154 41.2453 103.188 41.7049C104.222 42.1645 105.429 41.6911 105.884 40.6477Z" fill="white"/>
<path d="M109.392 50.9155C110.289 50.8862 110.992 50.1287 110.963 49.2234C110.934 48.3182 110.184 47.608 109.287 47.6372C108.39 47.6665 107.687 48.424 107.716 49.3293C107.745 50.2346 108.495 50.9447 109.392 50.9155Z" fill="white"/>
<path d="M112.978 59.8103C113.117 59.1537 112.702 58.5081 112.052 58.3682C111.401 58.2282 110.762 58.6471 110.623 59.3036C110.484 59.9602 110.899 60.6059 111.55 60.7458C112.2 60.8857 112.84 60.4669 112.978 59.8103Z" fill="white"/>
<path d="M56.6142 82.3263C59.0843 82.3263 61.0868 80.305 61.0868 77.8116C61.0868 75.3182 59.0843 73.2969 56.6142 73.2969C54.1441 73.2969 52.1416 75.3182 52.1416 77.8116C52.1416 80.305 54.1441 82.3263 56.6142 82.3263Z" fill="white"/>
<path d="M45.1086 89.7543C47.3993 89.7543 49.2563 87.8799 49.2563 85.5676C49.2563 83.2553 47.3993 81.3809 45.1086 81.3809C42.8179 81.3809 40.9609 83.2553 40.9609 85.5676C40.9609 87.8799 42.8179 89.7543 45.1086 89.7543Z" fill="white"/>
<path d="M33.9843 91.2399C36.085 91.2399 37.7879 89.5209 37.7879 87.4005C37.7879 85.28 36.085 83.561 33.9843 83.561C31.8836 83.561 30.1807 85.28 30.1807 87.4005C30.1807 89.5209 31.8836 91.2399 33.9843 91.2399Z" fill="white"/>
<path d="M24.6953 88.2301C26.3738 88.2301 27.7344 86.8567 27.7344 85.1624C27.7344 83.4682 26.3738 82.0947 24.6953 82.0947C23.0169 82.0947 21.6562 83.4682 21.6562 85.1624C21.6562 86.8567 23.0169 88.2301 24.6953 88.2301Z" fill="white"/>
<path d="M18.7665 81.8769C19.2236 80.5144 18.5 79.0358 17.1502 78.5744C15.8004 78.1129 14.3356 78.8434 13.8785 80.2058C13.4214 81.5683 14.145 83.0469 15.4948 83.5084C16.8445 83.9698 18.3093 83.2394 18.7665 81.8769Z" fill="white"/>
<path d="M10.859 75.0019C11.2838 73.9454 10.7797 72.7414 9.73306 72.3126C8.68646 71.8839 7.49368 72.3927 7.06891 73.4492C6.64415 74.5056 7.14824 75.7096 8.19484 76.1384C9.24144 76.5672 10.4342 76.0583 10.859 75.0019Z" fill="white"/>
<path d="M3.70145 66.4227C4.59849 66.402 5.30906 65.6512 5.28855 64.7457C5.26803 63.8402 4.52421 63.123 3.62717 63.1437C2.73013 63.1644 2.01956 63.9152 2.04007 64.8207C2.06059 65.7262 2.80441 66.4434 3.70145 66.4227Z" fill="white"/>
<path d="M2.37341 54.7484C2.51622 54.0928 2.10544 53.4444 1.45592 53.3003C0.80639 53.1561 0.164079 53.5708 0.0212712 54.2264C-0.121536 54.8821 0.289239 55.5304 0.938765 55.6746C1.58829 55.8187 2.2306 55.4041 2.37341 54.7484Z" fill="white"/>
<path d="M70.9687 46.768C73.4388 46.768 75.4413 44.7467 75.4413 42.2533C75.4413 39.7598 73.4388 37.7385 70.9687 37.7385C68.4985 37.7385 66.4961 39.7598 66.4961 42.2533C66.4961 44.7467 68.4985 46.768 70.9687 46.768Z" fill="white"/>
<path d="M84.5402 49.1603C86.8309 49.1603 88.6879 47.2859 88.6879 44.9736C88.6879 42.6613 86.8309 40.7869 84.5402 40.7869C82.2495 40.7869 80.3926 42.6613 80.3926 44.9736C80.3926 47.2859 82.2495 49.1603 84.5402 49.1603Z" fill="white"/>
<path d="M93.6757 55.4694C95.7764 55.4694 97.4793 53.7504 97.4793 51.63C97.4793 49.5095 95.7764 47.7905 93.6757 47.7905C91.575 47.7905 89.8721 49.5095 89.8721 51.63C89.8721 53.7504 91.575 55.4694 93.6757 55.4694Z" fill="white"/>
<path d="M98.6836 62.9169C100.362 62.9169 101.723 61.5434 101.723 59.8492C101.723 58.155 100.362 56.7815 98.6836 56.7815C97.0052 56.7815 95.6445 58.155 95.6445 59.8492C95.6445 61.5434 97.0052 62.9169 98.6836 62.9169Z" fill="white"/>
<path d="M102.92 71.0494C104.183 70.383 104.671 68.8093 104.011 67.5345C103.351 66.2596 101.792 65.7665 100.529 66.4329C99.266 67.0994 98.7774 68.6731 99.4377 69.9479C100.098 71.2227 101.657 71.7159 102.92 71.0494Z" fill="white"/>
<path d="M102.879 80.7247C103.937 80.3258 104.475 79.1365 104.08 78.0684C103.684 77.0004 102.506 76.4579 101.448 76.8568C100.39 77.2557 99.8526 78.445 100.248 79.513C100.643 80.5811 101.821 81.1236 102.879 80.7247Z" fill="white"/>
<path d="M100.477 90.3775C101.087 89.7132 101.048 88.6756 100.389 88.0599C99.7313 87.4443 98.7034 87.4838 98.0935 88.1482C97.4837 88.8125 97.5228 89.8501 98.1809 90.4658C98.8391 91.0814 99.867 91.0419 100.477 90.3775Z" fill="white"/>
<path d="M94.4902 99.3257C95.047 98.9587 95.2035 98.2054 94.8399 97.6434C94.4762 97.0813 93.73 96.9233 93.1732 97.2904C92.6164 97.6575 92.4598 98.4107 92.8235 98.9728C93.1872 99.5348 93.9334 99.6928 94.4902 99.3257Z" fill="white"/>
<path d="M42.0312 76.3258C44.5013 76.3258 46.5038 74.3045 46.5038 71.8111C46.5038 69.3177 44.5013 67.2964 42.0312 67.2964C39.561 67.2964 37.5586 69.3177 37.5586 71.8111C37.5586 74.3045 39.561 76.3258 42.0312 76.3258Z" fill="white"/>
<path d="M28.4602 73.2775C30.7509 73.2775 32.6078 71.4031 32.6078 69.0908C32.6078 66.7785 30.7509 64.9041 28.4602 64.9041C26.1695 64.9041 24.3125 66.7785 24.3125 69.0908C24.3125 71.4031 26.1695 73.2775 28.4602 73.2775Z" fill="white"/>
<path d="M19.3046 66.2739C21.4053 66.2739 23.1082 64.5549 23.1082 62.4344C23.1082 60.3139 21.4053 58.595 19.3046 58.595C17.2039 58.595 15.501 60.3139 15.501 62.4344C15.501 64.5549 17.2039 66.2739 19.3046 66.2739Z" fill="white"/>
<path d="M14.3164 57.2831C15.9949 57.2831 17.3555 55.9096 17.3555 54.2154C17.3555 52.5212 15.9949 51.1477 14.3164 51.1477C12.638 51.1477 11.2773 52.5212 11.2773 54.2154C11.2773 55.9096 12.638 57.2831 14.3164 57.2831Z" fill="white"/>
<path d="M12.4342 47.6507C13.7072 47.0041 14.2199 45.4382 13.5794 44.1532C12.9388 42.8682 11.3876 42.3507 10.1146 42.9972C8.84156 43.6438 8.32883 45.2097 8.96937 46.4947C9.60991 47.7797 11.1612 48.2973 12.4342 47.6507Z" fill="white"/>
<path d="M11.6205 37.1829C12.6666 36.7528 13.1693 35.5482 12.7432 34.4923C12.3172 33.4363 11.1238 32.9289 10.0777 33.359C9.03161 33.7891 8.52897 34.9937 8.95502 36.0496C9.38106 37.1056 10.5745 37.6129 11.6205 37.1829Z" fill="white"/>
<path d="M14.907 25.926C15.5228 25.2673 15.493 24.2294 14.8404 23.6078C14.1878 22.9861 13.1596 23.0162 12.5438 23.6749C11.9279 24.3337 11.9577 25.3716 12.6103 25.9932C13.2629 26.6149 14.2911 26.5848 14.907 25.926Z" fill="white"/>
<path d="M19.8153 16.7823C20.3745 16.4188 20.5358 15.6666 20.1758 15.1022C19.8157 14.5378 19.0706 14.3749 18.5114 14.7384C17.9523 15.1018 17.7909 15.854 18.151 16.4184C18.511 16.9828 19.2562 17.1457 19.8153 16.7823Z" fill="white"/>
<path d="M77.0859 61.4311C79.556 61.4311 81.5585 59.4098 81.5585 56.9163C81.5585 54.4229 79.556 52.4016 77.0859 52.4016C74.6157 52.4016 72.6133 54.4229 72.6133 56.9163C72.6133 59.4098 74.6157 61.4311 77.0859 61.4311Z" fill="white"/>
<path d="M84.7688 72.718C87.0594 72.718 88.9164 70.8435 88.9164 68.5312C88.9164 66.219 87.0594 64.3445 84.7688 64.3445C82.4781 64.3445 80.6211 66.219 80.6211 68.5312C80.6211 70.8435 82.4781 72.718 84.7688 72.718Z" fill="white"/>
<path d="M86.5849 83.5803C88.6855 83.5803 90.3885 81.8613 90.3885 79.7408C90.3885 77.6204 88.6855 75.9014 86.5849 75.9014C84.4842 75.9014 82.7812 77.6204 82.7812 79.7408C82.7812 81.8613 84.4842 83.5803 86.5849 83.5803Z" fill="white"/>
<path d="M84.3682 92.2047C86.0466 92.2047 87.4072 90.8313 87.4072 89.137C87.4072 87.4428 86.0466 86.0693 84.3682 86.0693C82.6897 86.0693 81.3291 87.4428 81.3291 89.137C81.3291 90.8313 82.6897 92.2047 84.3682 92.2047Z" fill="white"/>
<path d="M82.7357 98.3664C83.1626 96.9939 82.4064 95.532 81.0468 95.1011C79.6871 94.6702 78.2388 95.4335 77.812 96.806C77.3851 98.1784 78.1413 99.6403 79.5009 100.071C80.8606 100.502 82.3088 99.7388 82.7357 98.3664Z" fill="white"/>
<path d="M75.3886 105.853C75.8514 104.824 75.4006 103.612 74.3819 103.145C73.3631 102.678 72.162 103.133 71.6993 104.161C71.2365 105.19 71.6872 106.402 72.706 106.869C73.7248 107.336 74.9258 106.881 75.3886 105.853Z" fill="white"/>
<path d="M64.2478 112.004C65.1444 111.969 65.8432 111.207 65.8086 110.302C65.774 109.397 65.0191 108.691 64.1225 108.726C63.2259 108.761 62.5271 109.523 62.5617 110.428C62.5963 111.333 63.3512 112.038 64.2478 112.004Z" fill="white"/>
<path d="M35.915 61.6628C38.3851 61.6628 40.3876 59.6414 40.3876 57.148C40.3876 54.6546 38.3851 52.6333 35.915 52.6333C33.4448 52.6333 31.4424 54.6546 31.4424 57.148C31.4424 59.6414 33.4448 61.6628 35.915 61.6628Z" fill="white"/>
<path d="M28.2307 49.7199C30.5214 49.7199 32.3783 47.8454 32.3783 45.5332C32.3783 43.2209 30.5214 41.3464 28.2307 41.3464C25.94 41.3464 24.083 43.2209 24.083 45.5332C24.083 47.8454 25.94 49.7199 28.2307 49.7199Z" fill="white"/>
<path d="M26.4149 38.1437C28.5156 38.1437 30.2186 36.4248 30.2186 34.3043C30.2186 32.1838 28.5156 30.4648 26.4149 30.4648C24.3143 30.4648 22.6113 32.1838 22.6113 34.3043C22.6113 36.4248 24.3143 38.1437 26.4149 38.1437Z" fill="white"/>
<path d="M28.6318 27.9953C30.3103 27.9953 31.6709 26.6218 31.6709 24.9276C31.6709 23.2333 30.3103 21.8599 28.6318 21.8599C26.9534 21.8599 25.5928 23.2333 25.5928 24.9276C25.5928 26.6218 26.9534 27.9953 28.6318 27.9953Z" fill="white"/>
<path d="M35.1692 17.2995C35.6171 15.9339 34.8835 14.4604 33.5307 14.0082C32.1778 13.556 30.718 14.2965 30.27 15.6621C29.8221 17.0277 30.5557 18.5013 31.9085 18.9535C33.2614 19.4056 34.7212 18.6651 35.1692 17.2995Z" fill="white"/>
<path d="M41.3182 9.84301C41.7511 8.80146 41.2656 7.60289 40.2338 7.16592C39.202 6.72895 38.0146 7.21905 37.5817 8.2606C37.1488 9.30215 37.6343 10.5007 38.6661 10.9377C39.698 11.3747 40.8854 10.8846 41.3182 9.84301Z" fill="white"/>
<path d="M48.8555 5.33585C49.7524 5.30914 50.458 4.55357 50.4316 3.64823C50.4051 2.7429 49.6566 2.03064 48.7597 2.05735C47.8628 2.08406 47.1572 2.83963 47.1837 3.74496C47.2101 4.6503 47.9586 5.36256 48.8555 5.33585Z" fill="white"/>
<path d="M60.1809 1.45892C60.3217 0.802827 59.9089 0.155771 59.2589 0.0136783C58.6089 -0.128414 57.9679 0.288265 57.8271 0.944359C57.6864 1.60045 58.0992 2.24751 58.7491 2.38961C59.3991 2.5317 60.0401 2.11501 60.1809 1.45892Z" fill="white"/>
</g>
<g clip-path="url(#clip1_12_3483)">
<path d="M136.604 42.8071C137.865 42.8071 138.936 42.9194 139.815 43.1627C140.694 43.406 141.421 43.7615 141.975 44.2855C142.529 44.7908 142.931 45.4457 143.179 46.2691C143.428 47.0925 143.542 48.0656 143.542 49.2258V53.3989C143.542 54.5592 143.428 55.551 143.179 56.3744C142.931 57.1978 142.529 57.8527 141.975 58.358C141.421 58.8633 140.694 59.2375 139.815 59.4621C138.936 59.6867 137.865 59.7989 136.604 59.7989H128.939C127.677 59.7989 126.626 59.6867 125.746 59.4621C124.867 59.2375 124.16 58.8633 123.606 58.358C123.051 57.8527 122.65 57.1791 122.382 56.3744C122.134 55.551 122 54.5592 122 53.3989V49.2258C122 48.0656 122.134 47.0738 122.382 46.2691C122.631 45.4644 123.051 44.8095 123.606 44.2855C124.16 43.7802 124.867 43.406 125.746 43.1627C126.626 42.9194 127.696 42.8071 128.939 42.8071H136.604ZM125.785 53.1182C125.785 53.7545 125.842 54.2785 125.938 54.7089C126.052 55.1393 126.224 55.4761 126.473 55.7194C126.721 55.9627 127.046 56.1498 127.486 56.2621C127.906 56.3744 128.442 56.4118 129.092 56.4118H136.451C137.101 56.4118 137.636 56.3557 138.056 56.2621C138.477 56.1498 138.821 55.9814 139.069 55.7194C139.318 55.4761 139.49 55.1206 139.605 54.7089C139.719 54.2785 139.758 53.7545 139.758 53.1182V49.4691C139.758 48.8329 139.7 48.3089 139.605 47.8785C139.49 47.4481 139.318 47.1112 139.069 46.8679C138.821 46.6247 138.496 46.4375 138.056 46.3253C137.636 46.213 137.101 46.1755 136.451 46.1755H129.092C128.442 46.1755 127.906 46.2317 127.486 46.3253C127.065 46.4375 126.721 46.606 126.473 46.8679C126.224 47.1112 126.052 47.4668 125.938 47.8785C125.823 48.3089 125.785 48.8329 125.785 49.4691V53.1182Z" fill="#FFFFFD"/>
<path d="M165.027 46.4749C166.135 46.4749 167.072 46.5684 167.817 46.7556C168.563 46.9427 169.175 47.2421 169.633 47.6351C170.092 48.0281 170.417 48.5333 170.608 49.1696C170.799 49.7871 170.895 50.5357 170.895 51.4152V59.2749C170.895 59.6304 170.704 59.8175 170.341 59.8175H167.913C167.55 59.8175 167.359 59.6491 167.359 59.2749V52.2386C167.359 51.7333 167.321 51.3216 167.263 50.9661C167.206 50.6105 167.072 50.3485 166.9 50.1427C166.709 49.9368 166.46 49.7871 166.135 49.7123C165.81 49.6187 165.371 49.5813 164.816 49.5813H160.458V59.2936C160.458 59.6491 160.267 59.8363 159.885 59.8363H157.457C157.094 59.8363 156.903 59.6678 156.903 59.2936V49.5813H152.698C152.163 49.5813 151.723 49.6187 151.379 49.7123C151.035 49.8058 150.748 49.9556 150.557 50.1427C150.347 50.3485 150.213 50.6292 150.117 50.9661C150.041 51.3216 150.003 51.7333 150.003 52.2386V59.2749C150.003 59.6304 149.811 59.8175 149.448 59.8175H147.021C146.638 59.8175 146.447 59.6491 146.447 59.2749V51.4152C146.447 50.5357 146.543 49.7871 146.753 49.1696C146.944 48.552 147.269 48.0468 147.728 47.6351C148.187 47.2421 148.779 46.9427 149.544 46.7556C150.289 46.5684 151.226 46.4749 152.354 46.4749H165.027Z" fill="#FFFFFD"/>
<path d="M186.914 46.4749C188.022 46.4749 188.959 46.5684 189.723 46.7556C190.488 46.9427 191.1 47.2421 191.539 47.6351C191.998 48.0281 192.323 48.5333 192.514 49.1696C192.705 49.7871 192.82 50.5357 192.82 51.4152V59.2749C192.82 59.6304 192.629 59.8175 192.266 59.8175H189.838C189.475 59.8175 189.284 59.6491 189.284 59.2749V52.2386C189.284 51.7333 189.246 51.3216 189.188 50.9661C189.131 50.6105 188.997 50.3485 188.806 50.1427C188.615 49.9368 188.347 49.7871 188.022 49.7123C187.697 49.6187 187.258 49.5813 186.742 49.5813H180.147C179.612 49.5813 179.172 49.6187 178.828 49.7123C178.484 49.8058 178.197 49.9556 178.006 50.1427C177.796 50.3485 177.662 50.6292 177.567 50.9661C177.49 51.3216 177.452 51.7333 177.452 52.2386V59.2749C177.452 59.6304 177.261 59.8175 176.897 59.8175H174.47C174.088 59.8175 173.896 59.6491 173.896 59.2749V51.4152C173.896 50.5357 173.992 49.7871 174.202 49.1696C174.393 48.552 174.718 48.0468 175.177 47.6351C175.636 47.2421 176.228 46.9427 176.993 46.7556C177.739 46.5684 178.675 46.4749 179.803 46.4749H186.914Z" fill="#FFFFFD"/>
<path d="M198.898 41.5344C199.262 41.5344 199.453 41.7216 199.453 42.0771V44.3789C199.453 44.7531 199.262 44.9403 198.898 44.9403H196.471C196.089 44.9403 195.897 44.7531 195.897 44.3789V42.0771C195.897 41.7216 196.089 41.5344 196.471 41.5344H198.898ZM198.898 46.4561C199.262 46.4561 199.453 46.6432 199.453 47.0175V59.2561C199.453 59.6116 199.262 59.7988 198.898 59.7988H196.471C196.108 59.7988 195.917 59.6303 195.917 59.2561V47.0362C195.917 46.6619 196.089 46.4748 196.471 46.4748H198.898V46.4561Z" fill="#FFFFFD"/>
<path d="M204.614 46.4748C204.9 46.4748 205.091 46.587 205.206 46.8116L211.036 56.842C211.093 56.9356 211.189 56.9917 211.304 56.9917H211.399C211.514 56.9917 211.61 56.9356 211.667 56.842L217.516 46.8116C217.573 46.6993 217.65 46.6058 217.745 46.5496C217.822 46.4935 217.956 46.4561 218.109 46.4561H220.861C221.052 46.4561 221.167 46.5122 221.224 46.6432C221.282 46.7555 221.262 46.9052 221.186 47.0736L214.4 58.6947C214.171 59.1063 213.903 59.387 213.617 59.5368C213.311 59.7052 212.89 59.78 212.336 59.78H210.31C209.755 59.78 209.335 59.7052 209.048 59.5368C208.742 59.3683 208.494 59.0876 208.265 58.6947L201.479 47.0736C201.402 46.9052 201.383 46.7742 201.441 46.6432C201.498 46.5309 201.613 46.4561 201.804 46.4561H204.652L204.614 46.4748Z" fill="#FFFFFD"/>
<path d="M234.413 46.4748C235.254 46.4748 235.961 46.5497 236.516 46.6807C237.07 46.8117 237.51 47.0362 237.835 47.3544C238.16 47.6725 238.389 48.0842 238.523 48.5895C238.657 49.0947 238.714 49.7123 238.714 50.4421V52.7438C238.714 53.2678 238.599 53.6234 238.37 53.8292C238.141 54.0351 237.777 54.1286 237.3 54.1286H224.779V54.7088C224.779 55.476 224.971 56.0187 225.334 56.3555C225.697 56.6924 226.423 56.8608 227.494 56.8608H237.835C238.141 56.8608 238.274 57.0105 238.274 57.2912V59.331C238.274 59.6304 238.121 59.7614 237.835 59.7614H227.15C226.022 59.7614 225.085 59.6678 224.34 59.4994C223.594 59.3123 222.983 59.0316 222.524 58.6386C222.065 58.2456 221.74 57.7403 221.549 57.1041C221.358 56.4865 221.243 55.738 221.243 54.8585V51.3591C221.243 50.4795 221.339 49.731 221.549 49.1134C221.74 48.4959 222.065 47.9906 222.524 47.5789C222.983 47.186 223.575 46.8865 224.34 46.6994C225.085 46.5123 226.022 46.4187 227.15 46.4187H234.413V46.4748ZM224.779 51.9766H234.815C235.101 51.9766 235.235 51.8456 235.235 51.5649V50.5544C235.235 50.0491 235.12 49.6936 234.91 49.4877C234.7 49.2819 234.299 49.1696 233.725 49.1696H227.494C226.423 49.1696 225.697 49.338 225.334 49.6748C224.971 50.0117 224.779 50.5544 224.779 51.3403V51.9953V51.9766Z" fill="#FFFFFD"/>
<path d="M254.12 46.4749C254.426 46.4749 254.56 46.6246 254.56 46.9053V48.9451C254.56 49.2445 254.407 49.3755 254.12 49.3755H247.526C246.991 49.3755 246.551 49.4129 246.207 49.5065C245.863 49.6001 245.576 49.7498 245.385 49.9369C245.175 50.1428 245.041 50.4235 244.945 50.7603C244.869 51.1159 244.831 51.5276 244.831 52.0328V59.2375C244.831 59.5931 244.64 59.7802 244.276 59.7802H241.849C241.467 59.7802 241.275 59.6118 241.275 59.2375V51.3779C241.275 50.4983 241.371 49.7498 241.581 49.1322C241.772 48.5147 242.097 48.0094 242.556 47.5977C243.015 47.2048 243.607 46.9053 244.372 46.7182C245.117 46.5311 246.054 46.4375 247.182 46.4375H254.12V46.4749Z" fill="#FFFFFD"/>
<path d="M288.566 46.4748C289.407 46.4748 290.114 46.5497 290.668 46.6807C291.222 46.8117 291.662 47.0362 291.987 47.3544C292.312 47.6725 292.541 48.0842 292.675 48.5895C292.809 49.0947 292.866 49.7123 292.866 50.4421V52.7438C292.866 53.2678 292.752 53.6234 292.522 53.8292C292.293 54.0351 291.93 54.1286 291.452 54.1286H278.932V54.7088C278.932 55.476 279.123 56.0187 279.486 56.3555C279.849 56.6924 280.576 56.8608 281.646 56.8608H291.987C292.293 56.8608 292.427 57.0105 292.427 57.2912V59.331C292.427 59.6304 292.274 59.7614 291.987 59.7614H281.302C280.174 59.7614 279.238 59.6678 278.492 59.4994C277.747 59.3123 277.135 59.0316 276.676 58.6386C276.217 58.2456 275.892 57.7403 275.701 57.1041C275.51 56.4865 275.396 55.738 275.396 54.8585V51.3591C275.396 50.4795 275.491 49.731 275.701 49.1134C275.892 48.4959 276.217 47.9906 276.676 47.5789C277.135 47.186 277.728 46.8865 278.492 46.6994C279.238 46.5123 280.174 46.4187 281.302 46.4187H288.566V46.4748ZM278.932 51.9766H288.967C289.254 51.9766 289.387 51.8456 289.387 51.5649V50.5544C289.387 50.0491 289.273 49.6936 289.063 49.4877C288.852 49.2819 288.451 49.1696 287.877 49.1696H281.665C280.595 49.1696 279.868 49.338 279.505 49.6748C279.142 50.0117 278.951 50.5544 278.951 51.3403V51.9953L278.932 51.9766Z" fill="#FFFFFD"/>
<path d="M273.733 40L255.287 51.6211H261.308L253.586 63.2234L271.668 51.6211H265.112L273.733 40Z" fill="#FDBB16"/>
<path d="M126.396 71.8879H122.439V66.9102H126.377V67.9581H123.682V68.8938H126.148V69.8856H123.682V70.8213H126.396V71.8692V71.8879Z" fill="#FFFFFD"/>
<path d="M135.514 71.8879H134.482L131.92 69.0061V71.8879H130.678V66.9102H131.71L134.271 69.8856V66.9102H135.514V71.8879Z" fill="#FFFFFD"/>
<path d="M143.867 71.8879H139.91V66.9102H143.848V67.9581H141.172V68.8938H143.638V69.8856H141.172V70.8213H143.886V71.8692L143.867 71.8879Z" fill="#FFFFFD"/>
<path d="M151.188 70.1289L152.775 71.8879H151.265L149.736 70.185H149.372V71.8879H148.13V66.9102H150.691C151.743 66.9102 152.526 67.5277 152.526 68.5382C152.526 69.399 151.953 69.9604 151.188 70.1289ZM150.557 67.9768H149.372V69.1745H150.557C150.959 69.1745 151.284 68.9499 151.284 68.5757C151.284 68.2014 150.959 67.9768 150.557 67.9768Z" fill="#FFFFFD"/>
<path d="M157.782 69.3989C157.782 70.0539 158.126 70.4843 158.585 70.7276C158.776 70.8399 159.005 70.8773 159.273 70.8773C159.961 70.8773 160.439 70.503 160.611 69.9791H159.063V68.9311H161.854C161.873 69.0808 161.892 69.2492 161.892 69.3802C161.892 70.1849 161.586 70.8212 161.146 71.2329C160.707 71.6633 160.076 71.9627 159.254 71.9627C158.432 71.9627 157.763 71.6445 157.304 71.2141C156.865 70.8024 156.521 70.1662 156.521 69.3615C156.521 68.5568 156.884 67.9393 157.304 67.5276C157.744 67.0972 158.413 66.7791 159.235 66.7791C159.808 66.7791 160.324 66.91 160.783 67.172C161.242 67.434 161.548 67.8083 161.72 68.2761H160.267C160.018 68.0329 159.674 67.9019 159.235 67.9019C158.413 67.9019 157.782 68.5568 157.782 69.3802V69.3989Z" fill="#FFFFFD"/>
<path d="M168.506 71.8879H167.226V70.3347L165.257 66.9102H166.614L167.856 69.0996L169.099 66.9102H170.494L168.487 70.3347V71.8879H168.506Z" fill="#FFFFFD"/>
<path d="M185.614 71.8879H184.41V69.2306L182.976 71.8879H182.402L180.969 69.2306V71.8879H179.765V66.9102H180.988L182.689 70.0727L184.39 66.9102H185.614V71.8879Z" fill="#FFFFFD"/>
<path d="M193.737 71.8879L193.374 70.9897H191.233L190.87 71.8879H189.532L191.654 66.9102H192.935L195.056 71.8879H193.718H193.737ZM192.304 68.295L191.654 69.923H192.954L192.304 68.295Z" fill="#FFFFFD"/>
<path d="M203.849 71.8879H202.817L200.255 69.0061V71.8879H199.013V66.9102H200.045L202.606 69.8856V66.9102H203.849V71.8879Z" fill="#FFFFFD"/>
<path d="M211.953 71.8879L211.59 70.9897H209.449L209.086 71.8879H207.748L209.87 66.9102H211.15L213.272 71.8879H211.934H211.953ZM210.52 68.295L209.87 69.923H211.17L210.52 68.295Z" fill="#FFFFFD"/>
<path d="M218.108 69.3989C218.108 70.0539 218.452 70.4843 218.911 70.7276C219.102 70.8399 219.332 70.8773 219.599 70.8773C220.287 70.8773 220.765 70.503 220.937 69.9791H219.389V68.9311H222.18C222.199 69.0808 222.218 69.2492 222.218 69.3802C222.218 70.1849 221.912 70.8212 221.472 71.2329C221.033 71.6633 220.402 71.9627 219.58 71.9627C218.758 71.9627 218.089 71.6445 217.63 71.2141C217.191 70.8024 216.847 70.1662 216.847 69.3615C216.847 68.5568 217.21 67.9393 217.63 67.5276C218.07 67.0972 218.739 66.7791 219.561 66.7791C220.134 66.7791 220.651 66.91 221.109 67.172C221.568 67.434 221.874 67.8083 222.046 68.2761H220.593C220.345 68.0329 220.001 67.9019 219.561 67.9019C218.739 67.9019 218.108 68.5568 218.108 69.3802V69.3989Z" fill="#FFFFFD"/>
<path d="M232.273 71.8879H231.069V69.2306L229.635 71.8879H229.062L227.628 69.2306V71.8879H226.424V66.9102H227.647L229.348 70.0727L231.05 66.9102H232.273V71.8879Z" fill="#FFFFFD"/>
<path d="M240.606 71.8879H236.649V66.9102H240.587V67.9581H237.911V68.8938H240.377V69.8856H237.911V70.8213H240.625V71.8692L240.606 71.8879Z" fill="#FFFFFD"/>
<path d="M249.724 71.8879H248.692L246.112 69.0061V71.8879H244.869V66.9102H245.901L248.482 69.8856V66.9102H249.724V71.8879Z" fill="#FFFFFD"/>
<path d="M256.701 67.9954V71.9065H255.458V67.9954H253.814V66.9287H258.345V67.9954H256.701Z" fill="#FFFFFD"/>
<path d="M267.692 71.8879V66.9102H268.935V71.8879H267.692Z" fill="#FFFFFD"/>
<path d="M278.148 71.8879H277.116L274.535 69.0061V71.8879H273.293V66.9102H274.325L276.906 69.8856V66.9102H278.148V71.8879Z" fill="#FFFFFD"/>
<path d="M286.31 70.0351H287.61C287.438 70.9708 286.826 71.6071 285.947 71.869C285.66 71.9626 285.354 72 285.029 72C284.207 72 283.557 71.6632 283.118 71.2515C282.678 70.8398 282.334 70.1848 282.334 69.3989C282.334 68.6129 282.697 67.9766 283.118 67.5649C283.557 67.1532 284.207 66.8164 285.029 66.8164C285.66 66.8164 286.214 66.9848 286.692 67.3404C287.17 67.6959 287.457 68.1451 287.591 68.7252H286.253C286.253 68.7252 286.157 68.5193 286.1 68.4445C285.889 68.1451 285.507 67.9392 285.01 67.9392C284.322 67.9392 283.882 68.3509 283.672 68.8375C283.596 69.0246 283.557 69.2117 283.557 69.4176C283.557 70.0913 283.959 70.5778 284.437 70.7837C284.609 70.8585 284.8 70.8959 284.991 70.8959C285.641 70.8959 286.061 70.5404 286.253 70.0351H286.31Z" fill="#FFFFFD"/>
<path d="M292.312 70.5967C292.694 70.5967 293.019 70.8961 293.019 71.2704C293.019 71.6446 292.714 71.944 292.312 71.944C291.911 71.944 291.624 71.6446 291.624 71.2704C291.624 70.8961 291.949 70.5967 292.312 70.5967Z" fill="#FFFFFD"/>
</g>
<defs>
<clipPath id="clip0_12_3483">
<rect width="113" height="112" fill="white"/>
</clipPath>
<clipPath id="clip1_12_3483">
<rect width="171" height="32" fill="white" transform="translate(122 40)"/>
</clipPath>
</defs>
</svg>
